<svg version="1.1" xmlns="http://www.w3.org/2000/svg" xmlns:xlink="http://www.w3.org/1999/xlink" width="205" height="205" viewBox="0,0,205,205"><defs><radialGradient cx="227.41437" cy="148.02367" r="15.55187" gradientUnits="userSpaceOnUse" id="color-1"><stop offset="0" stop-color="#ababab"/><stop offset="1" stop-color="#1c1c1c"/></radialGradient><radialGradient cx="263.53976" cy="178.27868" r="44.47939" gradientUnits="userSpaceOnUse" id="color-2"><stop offset="0" stop-color="#ababab"/><stop offset="1" stop-color="#1c1c1c"/></radialGradient></defs><g transform="translate(-137.5,-77.5)"><g data-paper-data="{&quot;isPaintingLayer&quot;:true}" fill-rule="nonzero" stroke="none" stroke-width="0" stroke-linecap="butt" stroke-linejoin="miter" stroke-miterlimit="10" stroke-dasharray="" stroke-dashoffset="0" style="mix-blend-mode: normal"><path d="M222.36813,158.37127c-3.59648,3.97698 -5.63228,-3.32263 -11.79321,-8.87289c-6.16093,-5.55026 -11.85613,-4.99157 -11.42062,-8.96855c0.58369,-5.33013 11.04106,-3.12481 17.20199,2.42545c6.16093,5.55026 9.60833,11.43901 6.01185,15.41599z" fill="#fdeaba"/><path d="M212.97151,152.14588c0,0 -1.46152,-1.78496 -1.43948,-1.9135c0.1375,-0.8018 1.57542,-9.36538 1.57542,-9.36538l1.3953,0.45161z" fill="#f0d5b2"/><path d="M204.6834,145.34358l-1.31275,-0.47905l1.53124,-7.41548l1.06512,0.33099z" fill="#f0d5b2"/><path d="M216.30691,152.75728l-1.31275,-0.53416l1.69633,-9.17637l0.98258,1.3596z" fill="#f0d5b2"/><path d="M239.60669,154.57139c0,7.10772 -10.03487,18.96583 -18.51426,18.96583c-6.71697,0 -14.4391,-12.14368 -12.19232,-16.48221c2.30664,-4.45411 12.22898,-13.98189 15.80486,-14.45015c4.76445,-0.62391 14.90172,4.85881 14.90172,11.96653z" fill="url(#color-1)"/><path d="M204.2098,190.44189c0,-24.56529 19.9141,-44.47939 44.47939,-44.47939c24.56529,0 44.47939,19.9141 44.47939,44.47939c0,24.56529 -19.9141,44.47939 -44.47939,44.47939c-24.56529,0 -44.47939,-19.9141 -44.47939,-44.47939z" fill="url(#color-2)"/><g><path d="M199.72367,134.01207c0.54465,2.39115 -0.85958,5.86495 -3.13643,7.75895c-1.16783,0.97146 -7.73382,1.50754 -8.67058,1.31208c-0.8896,-0.18561 3.82708,-1.04753 3.56178,-2.21223c-0.12601,-0.55321 -4.71553,-0.85325 -4.64623,-1.48938c0.04287,-0.3936 3.29303,-0.20477 4.20867,-0.57074c0.78366,-0.31322 -0.82388,-1.22167 -0.01128,-1.14137c0.95636,0.0945 2.49735,0.38805 3.12262,-0.0586c0.87382,-0.62421 -4.87708,-1.34841 -4.22118,-2.37344c0.14044,-0.21948 1.84732,-0.01565 1.98498,-0.69225c0.06859,-0.33712 -2.52372,-2.8661 -2.6666,-3.58325c-0.11998,-0.60222 2.18641,0.56919 2.39465,0.52809c0.86037,-0.16978 2.801,1.76326 2.97082,1.622c0.44042,-0.36636 -3.31988,-5.12613 -2.89137,-5.32283c0.20644,-0.09476 2.91659,1.64632 3.06986,0.85732c0.132,-0.67952 -1.18837,-3.68651 -0.92026,-3.56405c0.75703,0.34578 2.06566,4.1129 2.87813,4.87294c1.45747,1.36341 2.75102,3.08475 2.97243,4.05678z" fill="#fc6060"/><path d="M201.89127,137.16506c0.06679,2.34393 -1.93293,5.49727 -4.46649,7.0432c-1.2995,0.79292 -7.67182,0.55116 -8.52939,0.25722c-0.8144,-0.27915 3.85356,-0.56044 3.82104,-1.70214c-0.01545,-0.54228 -4.34166,-1.35507 -4.15487,-1.95407c0.11557,-0.37062 3.18375,0.1824 4.12759,-0.06174c0.8078,-0.20895 -0.55519,-1.26014 0.20563,-1.0903c0.89543,0.19987 2.31145,0.65674 2.99328,0.30231c0.95287,-0.49533 -4.40206,-1.84604 -3.58131,-2.7488c0.17573,-0.1933 1.7672,0.19699 2.02696,-0.43278c0.12942,-0.31378 -1.8668,-3.02413 -1.86727,-3.72478c-0.0004,-0.58836 1.98016,0.7939 2.18682,0.77858c0.85386,-0.06329 2.3407,2.00369 2.52967,1.88839c0.49007,-0.29903 -2.19864,-5.27181 -1.7521,-5.41034c0.21512,-0.06674 2.47327,1.90538 2.76925,1.17016c0.25491,-0.6332 -0.43595,-3.65372 -0.20312,-3.50611c0.65742,0.41677 1.19294,4.16118 1.82477,4.97956c1.13342,1.46806 2.04241,3.25883 2.06956,4.21166z" fill="#fca85a"/><path d="M197.17594,144.45359c-0.96154,-0.07225 -4.25966,1.529 -4.90627,1.2169c-0.22901,-0.11053 2.55254,-1.18989 2.94874,-1.74402c0.46004,-0.6434 -2.20099,-1.42083 -2.24725,-1.63364c-0.09604,-0.44173 5.20867,-0.94633 5.22292,-1.51124c0.0055,-0.21782 -2.37211,-0.31093 -2.71984,-1.04575c-0.08416,-0.17785 -2.13528,-1.04903 -1.6562,-1.36933c0.57051,-0.38142 3.70994,-0.22111 3.90483,-0.49826c0.39114,-0.55624 -0.67065,-1.64886 -0.59549,-1.89833c0.35103,-1.16511 3.95424,2.49088 3.91188,1.43942c-0.03031,-0.75239 -1.06427,-1.66482 -1.64563,-2.29031c-0.49397,-0.53147 0.99893,0.01361 0.7913,-0.76281c-0.2426,-0.90717 -2.12731,-3.12228 -1.87968,-3.41904c0.40021,-0.47962 3.08458,2.62576 3.53318,2.34293c0.94449,-0.59547 -1.00916,-4.57736 -0.40116,-4.06153c0.64023,0.54319 3.81651,5.63794 3.77873,7.13586c-0.07367,2.92043 -1.7053,6.27895 -3.64435,7.50146c-0.78824,0.49696 -2.67083,0.72727 -4.3957,0.59766z" data-paper-data="{&quot;index&quot;:null}" fill="#fcf288"/></g><path d="M207.12617,146.96089l-1.31275,-0.53415l1.53124,-8.26838l1.06512,0.36906z" fill="#f0d5b2"/><path d="M210.04884,148.72793l-1.47784,-0.94688l1.53124,-8.59855l1.47785,0.36906z" fill="#f0d5b2"/><path d="M137.5,282.5v-205h205v205z" fill="none"/></g></g></svg>