<svg version="1.1" xmlns="http://www.w3.org/2000/svg" xmlns:xlink="http://www.w3.org/1999/xlink" width="251.23226" height="192.67646" viewBox="0,0,251.23226,192.67646"><defs><radialGradient cx="207.29823" cy="114.79845" r="23.90496" gradientUnits="userSpaceOnUse" id="color-1"><stop offset="0" stop-color="#ababab"/><stop offset="1" stop-color="#1c1c1c"/></radialGradient><radialGradient cx="262.82699" cy="161.30378" r="68.36979" gradientUnits="userSpaceOnUse" id="color-2"><stop offset="0" stop-color="#ababab"/><stop offset="1" stop-color="#1c1c1c"/></radialGradient></defs><g transform="translate(-57.13753,-55.69332)"><g data-paper-data="{&quot;isPaintingLayer&quot;:true}" fill-rule="nonzero" stroke="none" stroke-width="0" stroke-linecap="butt" stroke-linejoin="miter" stroke-miterlimit="10" stroke-dasharray="" stroke-dashoffset="0" style="mix-blend-mode: normal"><path d="M199.54159,130.70387c-5.52819,6.11307 -8.65745,-5.10725 -18.12749,-13.63862c-9.47004,-8.53137 -18.22419,-7.6726 -17.55477,-13.78567c0.89719,-8.19301 16.97134,-4.80319 26.44138,3.72819c9.47004,8.53137 14.76907,17.58303 9.24088,23.6961z" fill="#fdeaba"/><path d="M185.09794,121.13474c0,0 -2.24652,-2.74369 -2.21264,-2.94127c0.21136,-1.23246 2.4216,-14.39564 2.4216,-14.39564l2.14473,0.69417z" fill="#f0d5b2"/><path d="M172.35818,110.67885l-2.01785,-0.73636l2.35369,-11.39842l1.63721,0.50877z" fill="#f0d5b2"/><path d="M190.22482,122.07454l-2.01785,-0.82106l2.60745,-14.10511l1.51033,2.08986z" fill="#f0d5b2"/><path d="M226.03918,124.86303c0,10.92536 -15.42472,29.1526 -28.45849,29.1526c-10.32474,0 -22.19451,-18.66619 -18.74096,-25.335c3.54556,-6.84647 18.79731,-21.49173 24.29383,-22.2115c7.3235,-0.95902 22.90561,7.46854 22.90561,18.3939z" fill="url(#color-1)"/><path d="M171.63021,180c0,-37.75959 30.6102,-68.36979 68.36979,-68.36979c37.75959,0 68.36979,30.6102 68.36979,68.36979c0,37.75959 -30.6102,68.36979 -68.36979,68.36979c-37.75959,0 -68.36979,-30.6102 -68.36979,-68.36979z" fill="url(#color-2)"/><g><path d="M86.40466,76.92717c-3.52762,3.43629 -10.95057,4.66603 -16.57964,2.7467c-2.88722,-0.98445 -10.67881,-11.67551 -11.3244,-13.48543c-0.6131,-1.7188 5.80114,5.462 7.5194,3.78823c0.81614,-0.79501 -3.47372,-8.97418 -2.31104,-9.5213c0.7194,-0.33852 3.79787,5.42896 5.38347,6.61502c1.35706,1.0151 1.2312,-2.69065 1.94417,-1.21406c0.83911,1.73784 1.94907,4.68592 3.36901,5.28991c1.98438,0.84408 -2.79426,-9.76933 -0.35111,-9.71825c0.52312,0.01093 1.96049,3.14938 3.26409,2.67707c0.64952,-0.23533 2.26997,-7.325 3.34941,-8.32053c0.90644,-0.83598 1.31319,4.34266 1.60159,4.65651c1.19154,1.2967 -0.08979,6.64578 0.33005,6.78893c1.08885,0.37126 5.30962,-11.05506 6.09526,-10.52661c0.37849,0.25458 0.23162,6.72148 1.74417,6.15825c1.30267,-0.48507 5.07368,-5.89536 5.14446,-5.30771c0.19984,1.65928 -4.88609,7.84509 -5.33813,10.033c-0.81089,3.92484 -2.40675,7.9434 -3.84076,9.34028z" fill="#fc6060"/><path d="M83.27027,83.94219c-3.9469,2.56794 -11.44401,2.44175 -16.74526,-0.28185c-2.71908,-1.39697 -8.97496,-12.57033 -9.36887,-14.34765c-0.37408,-1.68783 4.99412,6.01726 6.91662,4.76645c0.91314,-0.59411 -2.22242,-8.85875 -1.00038,-9.16565c0.75612,-0.18989 3.01998,5.64694 4.42633,7.00887c1.20364,1.16562 1.57837,-2.27047 2.08371,-0.78888c0.59475,1.74372 1.29403,4.64859 2.61514,5.44606c1.84626,1.11446 -1.44425,-9.47618 0.96192,-9.01462c0.51521,0.09883 1.51222,3.23466 2.86337,3.02061c0.67321,-0.10665 3.22842,-6.36463 4.42863,-7.09885c1.00786,-0.61655 0.7122,4.22441 0.95478,4.56254c1.00224,1.39702 -0.98364,6.10864 -0.58825,6.31178c1.02544,0.52684 6.73293,-9.28606 7.43774,-8.66583c0.33954,0.2988 -0.67638,6.23292 0.89338,5.97054c1.35195,-0.22597 5.80507,-4.5716 5.79584,-4.01809c-0.02606,1.56288 -5.88235,6.40003 -6.62345,8.33944c-1.32944,3.47904 -3.4468,6.91126 -5.05125,7.95516z" fill="#fca85a"/><path d="M65.84411,83.49069c-0.88266,-1.72342 -7.07902,-5.69935 -7.22102,-7.13414c-0.05029,-0.50815 4.71098,3.1288 6.07531,3.22775c1.58415,0.1149 0.13102,-5.2591 0.44728,-5.56114c0.65647,-0.62696 7.07389,7.93558 8.05689,7.36868c0.37903,-0.21859 -1.95016,-4.39057 -1.05487,-5.75564c0.21669,-0.3304 -0.43735,-4.75732 0.613,-4.27158c1.25081,0.57844 4.26227,6.12632 4.94122,6.17019c1.36266,0.08806 2.12366,-2.87523 2.62985,-3.00755c2.36411,-0.618 -0.12957,9.38373 1.62798,8.21053c1.25763,-0.8395 1.739,-3.56648 2.20239,-5.21751c0.39372,-1.40283 1.0223,1.72612 2.13551,0.55759c1.30069,-1.36532 3.12393,-6.91382 3.8917,-6.80009c1.24085,0.18381 -1.27103,8.03457 -0.31675,8.5073c2.0091,0.99527 6.78793,-6.52073 6.54036,-4.93885c-0.2607,1.66575 -5.66687,12.44187 -8.27343,13.94505c-5.08187,2.93069 -12.5453,3.65006 -16.67003,1.60676c-1.67675,-0.83062 -4.04201,-3.81577 -5.62539,-6.90736z" data-paper-data="{&quot;index&quot;:null}" fill="#fcf288"/></g><g><path d="M164.73452,93.26105c0.83719,3.67546 -1.32127,9.01508 -4.82105,11.92638c-1.79508,1.49324 -11.88774,2.31726 -13.32765,2.01682c-1.36741,-0.28531 5.88265,-1.61017 5.47486,-3.40045c-0.19369,-0.85034 -7.24829,-1.31154 -7.14178,-2.28935c0.0659,-0.60501 5.06175,-0.31475 6.46919,-0.87729c1.20458,-0.48146 -1.26639,-1.87784 -0.01734,-1.75442c1.47003,0.14526 3.8387,0.59648 4.79981,-0.09008c1.34316,-0.95948 -7.49661,-2.07266 -6.48842,-3.64824c0.21587,-0.33736 2.83953,-0.02406 3.05114,-1.06407c0.10543,-0.51819 -3.87924,-4.40551 -4.09887,-5.50786c-0.18442,-0.92568 3.36075,0.87491 3.68084,0.81174c1.32248,-0.26097 4.30545,2.71033 4.56648,2.49319c0.67698,-0.56314 -5.10303,-7.87943 -4.44436,-8.18179c0.31732,-0.14566 4.48313,2.53058 4.71872,1.31779c0.2029,-1.0445 -1.82666,-5.66658 -1.41455,-5.47834c1.16364,0.53151 3.17515,6.32198 4.42401,7.49025c2.2403,2.09572 4.22863,4.74161 4.56896,6.23572z" fill="#fc6060"/><path d="M168.06637,98.10755c0.10266,3.60288 -2.97113,8.44992 -6.8655,10.82618c-1.99747,1.21881 -11.79244,0.8472 -13.11062,0.39537c-1.25182,-0.42909 5.92336,-0.86146 5.87336,-2.61638c-0.02375,-0.83355 -6.67362,-2.08289 -6.3865,-3.00362c0.17765,-0.56969 4.89378,0.28037 6.34457,-0.0949c1.24168,-0.32118 -0.85339,-1.93697 0.31608,-1.67592c1.37637,0.30723 3.55295,1.00949 4.60101,0.46468c1.46467,-0.76138 -6.76646,-2.83757 -5.50488,-4.22521c0.27012,-0.29712 2.71638,0.3028 3.11567,-0.66523c0.19894,-0.48232 -2.86948,-4.64842 -2.87021,-5.7254c-0.00061,-0.90437 3.04372,1.22031 3.36139,1.19676c1.31248,-0.09729 3.59792,3.0799 3.88838,2.90267c0.7533,-0.45965 -3.37955,-8.10336 -2.69318,-8.31629c0.33067,-0.10258 3.8017,2.92878 4.25664,1.79866c0.39182,-0.9733 -0.67011,-5.61617 -0.31222,-5.38929c1.01053,0.64062 1.83368,6.3962 2.80487,7.65414c1.74219,2.25658 3.13942,5.00918 3.18115,6.47379z" fill="#fca85a"/><path d="M160.81838,109.31083c-1.47799,-0.11106 -6.54757,2.35024 -7.54149,1.87051c-0.35201,-0.1699 3.92354,-1.82899 4.53255,-2.68075c0.70713,-0.98898 -3.38317,-2.18397 -3.45428,-2.51108c-0.14762,-0.67899 8.00631,-1.45462 8.02821,-2.32295c0.00845,-0.33481 -3.6462,-0.47793 -4.1807,-1.60743c-0.12937,-0.27338 -3.28216,-1.61248 -2.54577,-2.10481c0.87694,-0.58628 5.7026,-0.33987 6.00216,-0.76588c0.60123,-0.855 -1.03087,-2.53448 -0.91533,-2.91794c0.53958,-1.79091 6.07811,3.82876 6.01299,2.21255c-0.04659,-1.1565 -1.6359,-2.55901 -2.52952,-3.52047c-0.75928,-0.81693 1.53546,0.02092 1.21631,-1.17252c-0.3729,-1.39442 -3.26991,-4.7993 -2.88928,-5.25545c0.61517,-0.73723 4.74134,4.03609 5.4309,3.60134c1.45178,-0.91531 -1.55119,-7.03592 -0.61663,-6.24302c0.98411,0.83494 5.86641,8.66614 5.80833,10.96861c-0.11324,4.48902 -2.62124,9.65145 -5.60177,11.53059c-1.21162,0.76389 -4.10537,1.1179 -6.75669,0.91867z" data-paper-data="{&quot;index&quot;:null}" fill="#fcf288"/></g><path d="M176.11299,113.16484l-2.01785,-0.82105l2.35369,-12.70942l1.63721,0.56729z" fill="#f0d5b2"/><path d="M180.60546,115.88097l-2.27161,-1.45546l2.35369,-13.21694l2.27162,0.56729z" fill="#f0d5b2"/></g></g></svg>