<svg version="1.1" xmlns="http://www.w3.org/2000/svg" xmlns:xlink="http://www.w3.org/1999/xlink" width="143.44119" height="179.48489" viewBox="0,0,143.44119,179.48489"><g transform="translate(-163.14373,-67.95063)"><g data-paper-data="{&quot;isPaintingLayer&quot;:true}" fill-rule="nonzero" stroke="none" stroke-width="1" stroke-linecap="butt" stroke-linejoin="miter" stroke-miterlimit="10" stroke-dasharray="" stroke-dashoffset="0" style="mix-blend-mode: normal"><g><path d="M284.82393,216.57451c-7.759,4.386 -20.532,5.317 -20.532,5.317c0,0 -13.714,-38.48 -11.202,-38.517c1.622,-0.024 7.573,5.12 18.956,7.674c6.277,1.409 18.695,1.293 20.417,1.265c2.482,-0.037 4.965,-0.083 7.423,-0.087c1.655,0 5.218,-0.667 6.699,0.136c-0.393,2.327 -7.609,16.217 -21.761,24.212z" data-paper-data="{&quot;index&quot;:null}" fill="#828c00"/><path d="M255.54493,150.02351c0.604,0.169 0.062,6.434 0,8.856c-0.075,2.722 -0.141,5.457 -0.302,8.172c-0.17,2.871 -1.705,6.388 -4.374,8.155c-0.77,0.515 -4.391,1.858 -7.804,2.13c-4.896,0.395 -10.345,-1.125 -10.345,-1.125l2.619,-3.97c2.265,0.676 4.638,0.919 6.993,0.716c3.915,-0.317 7.585,-2.87 8.173,-3.871c1.005,-1.718 1.303,-3.662 1.39,-5.623c0.095,-2.191 0,-4.395 0.037,-6.59c0.025,-1.623 -0.567,-7.262 0.062,-7.262c0.629,0 0.207,2.673 0.882,2.719c0.674,0.045 0.509,-2.805 0.885,-2.805c0.377,0 0.083,2.932 0.675,2.932c0.575,0 0.505,-2.603 1.109,-2.434z" data-paper-data="{&quot;index&quot;:null}" fill="#828c00"/><path d="M171.31893,230.40151c-1.217,-0.993 -4.751,-6.319 -5.694,-7.476l0.923,-0.535c0.687,0.799 1.038,1.874 2.027,2.562c2.864,-2.472 17.586,-16.827 30.207,-30.259l8.955,12.357c0,0 -35.376,22.589 -36.418,23.351z" data-paper-data="{&quot;index&quot;:null}" fill="#828c00"/><path d="M264.35493,214.81951c0.033,2.232 0.405,4.877 -0.05,7.072c-2.946,0.371 -6.066,-0.123 -9.045,0.181c-2.864,0.293 -43.407,1.277 -52.064,-1.824c-4.684,-1.681 -8.122,-4.906 -11.019,-8.815c-2.76,-3.728 -3.497,-7.987 -4.179,-12.472c-1.498,-9.804 -1.093,-19.298 -0.716,-29.163c0.19,-4.984 0.294,-15.009 0.294,-15.009l2.644,-9.746l47.089,-13.135c0.042,6.837 0.108,26.839 1.349,33.569c0.307,1.677 2.181,6.772 2.181,6.772l2.619,3.971c0,0 1.432,1.207 2.156,1.73c2.235,1.635 4.833,2.838 7.035,4.485c1.444,1.075 3.306,1.837 4.659,3.135c7.378,7.076 6.914,19.915 7.047,29.249z" data-paper-data="{&quot;index&quot;:null}" fill="#a0aa1e"/><path d="M187.71293,143.05451l26.027,0.358l-26.156,11.377l0.129,-11.735" data-paper-data="{&quot;index&quot;:null}" fill="#828c00"/><path d="M177.00493,152.86951c0.592,0 0.298,-2.933 0.675,-2.933c0.376,0 0.211,2.851 0.885,2.805c0.675,-0.045 0.253,-2.718 0.882,-2.718c0.629,0 0.037,5.639 0.062,7.262c0.037,2.195 -0.058,4.399 0.037,6.59c0.087,1.961 0.381,3.905 1.39,5.623c0.588,1 4.258,3.554 8.173,3.871c3.98,0.326 8.214,-1.59 9.273,-1.4c-0.064,1.342 -0.048,2.688 0.045,4.028l-0.327,0.565c-1.324,0.082 -4.833,1.581 -9.736,1.186c-3.41,-0.272 -7.411,-2.105 -8.189,-2.62c-2.669,-1.763 -3.815,-4.794 -3.985,-7.665c-0.161,-2.715 -0.227,-5.45 -0.302,-8.172c-0.066,-2.422 -0.608,-8.687 0,-8.856c0.608,-0.169 0.53,2.434 1.117,2.434z" data-paper-data="{&quot;index&quot;:null}" fill="#a0aa1e"/><path d="M240.14093,203.83851c0,0 -1.899,41.754 -2.358,43.117c-1.494,0.243 -8.864,1.051 -9.228,-0.206c0.435,-0.613 3.426,-0.206 3.997,-0.305c0,-6.33 -10.618,-43.735 -10.618,-43.735z" data-paper-data="{&quot;index&quot;:null}" fill="#a0aa1e"/><g data-paper-data="{&quot;index&quot;:null}"><path d="M200.62893,69.37751l-8.814,5.688l-8.814,-2.022l17.628,-3.666" fill="#aaa082"/><path d="M174.89093,127.81351c1.454,-2.097 2.801,-4.266 4.035,-6.499l9.434,6.643z" fill="#aaa082"/><path d="M189.77193,97.88151l-17.292,-6.834c0,0 13.887,-6.339 16.858,-7.48c0.144,1.841 0.434,14.314 0.434,14.314z" fill="#dcd2b4"/><path d="M190.31293,104.02251l-0.381,10.977c0,0 -13.382,-4.041 -15.182,-4.967c0,-0.066 15.563,-6.01 15.563,-6.01z" fill="#aaa082"/><path d="M190.00893,96.70351c0.228,2.183 -0.645,8.262 -0.645,8.262l-15.67,-4.152c0,0 14.006,-3.929 16.315,-4.11z" fill="#dcd2b4"/><path d="M193.67393,73.78451c-1.072,1.446 -1.531,10.487 -2.227,11.665c-3.426,-0.737 -11.275,-3.385 -14.482,-4.745c2.147,-1.268 16.692,-6.969 16.709,-6.92z" fill="#dcd2b4"/><path d="M190.44793,114.06851l-0.29,11.36l-11.619,-6.668l11.909,-4.692" fill="#aaa082"/><path d="M225.69893,127.42251l-36.385,1.998c0,0 -0.455,-6.994 -0.455,-7.55c-0.07,-2.381 -0.526,-11.744 -0.55,-12.897c-0.067,-3.192 -0.576,-15.318 -0.576,-18.202c-0.023,-2.769 0.116,-5.538 0.414,-8.291c0.267,-2.138 0.893,-4.216 1.854,-6.146c0.437,-0.885 1.034,-1.683 1.763,-2.352c3.082,-2.986 10.473,-5.618 13.427,-5.738c2.049,-0.086 10.738,2.245 10.738,2.245c0,0 6.766,7.641 9.348,22.688c2.284,13.308 0.422,34.245 0.422,34.245z" fill="#000000"/><path d="M188.63593,69.57151c0,0 11.694,-1.092 16.486,-1.454c1.205,-0.139 2.426,0.002 3.567,0.412c2.036,-0.07 3.902,2.343 5.971,3.122c-1.184,0.844 -26.024,-2.08 -26.024,-2.08z" fill="#faf0e6"/><path d="M223.92993,97.47351c-1.796,0.272 -24.542,-4.449 -25.382,-5.157c2.727,-2.916 21.19,-12.139 23.396,-12.567c1.047,2.788 2.962,16.311 1.986,17.724z" fill="#ffffff"/><path d="M224.91493,114.31151c0,0 -23.416,-7.237 -25.75,-8.316c1.696,-1.961 23.172,-11.051 25.332,-12.476c1.978,-1.318 0.418,20.792 0.418,20.792z" fill="#ffffff"/><path d="M224.46093,112.77151l-0.199,10.256c0,0 -14.975,-4.889 -14.983,-4.943c1.771,-1.108 15.182,-5.313 15.182,-5.313z" fill="#dcd2b4"/><path d="M179.06093,127.25351c-3.533,0.194 -7.055,0.05 -10.58,0.251c0.554,-3.88 2.305,-8.509 4.018,-12.039c1.303,1.857 5.904,9.547 6.562,11.788z" fill="#faf0e6"/><path d="M186.76293,117.54551l4.332,10.779l-13.614,-0.103l9.282,-10.676" fill="#faf0e6"/><path d="M188.67993,130.11251c1.196,-3.036 4.254,-9.659 5.835,-12.518h0.173c0.828,1.648 7.416,11.055 7.035,11.694c-1.726,0.214 -11.408,1.59 -13.043,0.824z" fill="#dcd2b4"/><path d="M208.11193,128.56751c-0.215,0.078 -7.448,-0.535 -8.959,-0.729c0.257,-1.067 4.047,-8.798 4.581,-9.292c0.699,1.705 4.721,8.151 4.378,10.021z" fill="#faf0e6"/><path d="M207.00393,127.52151c1.304,-2.653 2.959,-5.767 2.959,-5.767c0,0 1.725,2.991 3.016,5.767z" fill="#faf0e6"/><path d="M210.95593,128.97951c1.299,-2.653 2.954,-5.767 2.954,-5.767c0,0 1.73,2.995 3.021,5.767z" fill="#faf0e6"/><path d="M163.41693,127.94551c-0.471,-1.647 1.544,-7.987 2.922,-9.993c0.608,1.306 2.541,10.24 2.541,10.24c0,0 -4.354,-0.037 -5.463,-0.247z" fill="#dcd2b4"/><path d="M212.96593,71.11151l8.313,10.957c0,0 -21.488,0.379 -24.443,0.222c0.77,-1.289 16.13,-11.179 16.13,-11.179z" fill="#ffffff"/><path d="M237.09593,144.12951c-6.58,1.54 -18.89,4.699 -42.757,2.908c-3.336,-0.28 -6.725,-0.289 -9.989,-1.042c-1.774,-0.463 -3.52,-1.025 -5.231,-1.681c-1.266,-0.449 -9.658,-5.544 -11.801,-8.164c-1.308,-1.602 -5.024,-7.109 -3.997,-9.375c0.169,0.21 58.626,-0.943 58.626,-0.943c0,0 0.149,-10.783 0.178,-11.286c0.136,-2.558 0.149,-5.136 0.182,-7.707c0.113,-5.118 -0.373,-10.233 -1.448,-15.24c-1.196,-5.227 -2.657,-10.676 -5.454,-15.31c-2.52,-4.181 -5.669,-6.636 -10.3,-8.168c2.363,-0.527 5.914,0.284 8.256,0.824c2.889,0.741 5.683,1.808 8.329,3.18c5.164,2.541 8.185,6.849 10.759,11.792c5.338,10.261 5.139,23.54 5.412,34.83c0.203,8.494 -0.393,16.929 -0.765,25.382z" fill="#a0aa1e"/><path d="M228.18793,125.75851c0.414,0.313 3.857,2.125 3.857,2.125l-0.493,0.453l-4.166,-2.187v-0.523c0.343,-0.115 1.605,-1.557 3.248,-2.385c0.199,-0.159 0.483,-0.159 0.683,0c-0.087,0.383 -2.76,2.204 -3.129,2.517z" fill="#000000"/></g></g></g></g></svg>