<svg version="1.1" xmlns="http://www.w3.org/2000/svg" xmlns:xlink="http://www.w3.org/1999/xlink" width="148.4865" height="143.65244" viewBox="0,0,148.4865,143.65244"><g transform="translate(-165.75675,-108.17378)"><g data-paper-data="{&quot;isPaintingLayer&quot;:true}" fill-rule="nonzero" stroke="none" stroke-width="1" stroke-linecap="butt" stroke-linejoin="miter" stroke-miterlimit="10" stroke-dasharray="" stroke-dashoffset="0" style="mix-blend-mode: normal"><path d="M233.22575,219.79322l13.455,1.909c0.067,4.258 -0.622,10.254 -3.046,13.694c-2.336,3.365 -5.762,5.821 -9.699,6.951c-2.026,0.561 -4.122,0.337 -6.189,0.415c-1.901,0.075 -3.461,-0.415 -5.287,-0.199c-0.104,0.718 -0.125,4.528 -1.329,3.884c0.395,-2.772 0.851,-8.569 0.851,-8.569c0,0 6.521,-0.863 10.455,-3.868c3.777,-2.867 3.528,-10.038 0.789,-14.217z" data-paper-data="{&quot;index&quot;:null}" fill="#a0aa1e"/><path d="M257.95975,208.15322l15.356,0.116c-3.714,18.155 -6.964,38.548 -7.333,42.328c1.141,0.415 2.233,0.067 3.287,0.162c0.033,0.378 0.062,0.677 0.095,1.067c-1.502,-0.096 -7.927,0.12 -9.45,-0.299c0.012,-1.274 -1.955,-43.374 -1.955,-43.374z" data-paper-data="{&quot;index&quot;:null}" fill="#828c00"/><path d="M165.75675,196.86922c1.486,-0.809 5.06,-0.137 6.72,-0.137c2.465,0.004 4.955,0.05 7.446,0.087c1.726,0.029 14.182,0.146 20.478,-1.274c11.418,-2.573 17.386,-7.756 19.013,-7.731c2.519,0.037 -11.235,38.805 -11.235,38.805c0,0 -12.813,-0.937 -20.595,-5.357c-14.194,-8.055 -21.433,-22.048 -21.827,-24.393z" data-paper-data="{&quot;index&quot;:null}" fill="#828c00"/><path d="M207.69275,219.49422c0.129,-9.403 -0.336,-22.339 7.056,-29.464c1.357,-1.307 3.225,-2.075 4.673,-3.158c2.208,-1.66 4.815,-2.872 7.056,-4.519c0.726,-0.527 2.162,-1.743 2.162,-1.743l2.74,-1.457l-0.112,-2.543c0,0 1.88,-5.134 2.187,-6.823c2.017,-11.026 -0.108,-22.409 1.955,-33.456c0.224,-1.212 0.498,-2.523 0.78,-3.756l30.551,-3.855l31.431,2.075c3.657,2.722 -0.444,6.449 -3.461,7.885c-1.777,0.851 -3.424,1.66 -4.939,2.959c-0.328,0.282 -3.076,2.386 -3.985,5.079c-1.382,4.113 -1.012,9.615 -1.108,12.284c-0.178,5.025 0.104,10.1 0.295,15.122c0.378,9.939 0.784,19.504 -0.718,29.381c-0.685,4.519 -1.424,8.81 -4.192,12.566c-2.905,3.938 -6.354,7.187 -11.053,8.88c-4.901,1.764 -17.016,2.428 -29.741,2.432c-9.825,0 -21.226,-0.465 -22.479,-0.593c-2.988,-0.308 -6.118,0.19 -9.073,-0.183c-0.432,-2.199 -0.058,-4.864 -0.025,-7.113z" data-paper-data="{&quot;index&quot;:null}" fill="#a0aa1e"/><path d="M296.35475,154.62822c0.61,0.17 0.066,6.482 0,8.922c-0.075,2.743 -0.141,5.498 -0.303,8.233c-0.17,2.893 -1.32,5.947 -3.997,7.723c-0.78,0.519 -4.794,2.366 -8.214,2.639c-4.918,0.399 -8.438,-1.112 -9.766,-1.195l-0.328,-0.568c0.094,-1.351 0.11,-2.706 0.046,-4.059c1.063,-0.191 5.308,1.739 9.301,1.411c3.926,-0.319 7.608,-2.892 8.197,-3.901c1.013,-1.73 1.308,-3.689 1.395,-5.664c0.095,-2.208 0,-4.428 0.037,-6.64c0.025,-1.635 -0.569,-7.316 0.062,-7.316c0.631,0 0.208,2.693 0.884,2.739c0.677,0.045 0.511,-2.826 0.889,-2.826c0.377,0 0.083,2.954 0.676,2.954c0.589,0 0.511,-2.622 1.121,-2.452z" data-paper-data="{&quot;index&quot;:null}" fill="#a0aa1e"/><path d="M251.52375,154.21322c0.61,0.17 0.066,6.482 0,8.922c-0.075,2.743 -0.141,5.498 -0.303,8.233c-0.17,2.893 -1.71,6.437 -4.387,8.217c-0.768,0.519 -4.404,1.872 -7.824,2.145c-4.906,0.399 -10.376,-1.132 -10.376,-1.132l2.627,-4.001c2.272,0.681 4.652,0.926 7.015,0.722c3.926,-0.319 7.607,-2.892 8.197,-3.901c1.012,-1.73 1.307,-3.689 1.394,-5.664c0.096,-2.208 0,-4.428 0.038,-6.64c0.024,-1.635 -0.569,-7.316 0.062,-7.316c0.631,0 0.207,2.693 0.884,2.739c0.676,0.045 0.51,-2.826 0.888,-2.826c0.378,0 0.083,2.954 0.677,2.954c0.589,0 0.498,-2.622 1.108,-2.452z" data-paper-data="{&quot;index&quot;:null}" fill="#828c00"/><g data-paper-data="{&quot;index&quot;:null}"><path d="M286.77375,130.07722c-0.075,2.478 -0.316,4.777 -1.735,6.901l-1.121,0.527c-3.05,-0.63 -3.058,-5.257 -2.577,-7.594c1.872,0.133 3.598,-0.091 5.433,0.166z" fill="#ffffff"/><path d="M288.45775,129.03122h3.527c1.901,9.52 -6.209,8.96 -3.527,0z" fill="#ffffff"/><path d="M276.01575,127.67022h3.528c1.901,9.52 -6.209,8.964 -3.528,0z" fill="#dcd2b4"/><path d="M270.87175,127.09822h3.532c1.897,9.519 -6.213,8.959 -3.532,0z" fill="#ffffff"/><path d="M265.79875,126.23922h3.532c1.881,9.519 -6.225,8.959 -3.532,0z" fill="#ffffff"/><path d="M293.64875,128.24322h3.532c1.897,9.52 -6.213,8.964 -3.532,0z" fill="#faf0e6"/><path d="M262.38275,108.39022c2.652,-0.129 5.312,-0.071 7.969,-0.158c5.96,-0.199 23.852,0.125 26.832,0.747c2.561,0.529 5.005,1.513 7.218,2.905c4.217,2.635 6.732,8.109 6.993,12.969c0.121,2.269 -0.444,4.896 -2.548,6.141c-2.333,1.378 -5.811,0.83 -8.38,0.901c-6.64,0.141 -13.281,0.228 -19.922,0.137l-44.351,0.552c0.854,-3.941 2.116,-7.782 3.764,-11.462c2.003,-4.464 5.587,-8.029 10.061,-10.01c3.532,-1.631 11.31,-2.668 12.364,-2.722z" fill="#828c00"/><path d="M304.43075,126.09722c1.565,0 3.566,1.158 2.54,3.063c-0.9,1.681 -2.992,0.735 -3.585,-0.664c0.149,-0.872 0.508,-1.696 1.045,-2.399z" fill="#645a1e"/><path d="M298.66175,129.40522c-1.793,1.174 -3.233,-1.266 -2.37,-2.797l1.1,-0.83c1.801,-0.029 2.972,2.527 1.27,3.627z" fill="#645a1e"/><path d="M313.19975,121.05722c-0.034,-0.43 0.173,-0.843 0.539,-1.072c0.826,0.182 0.456,1.543 0.162,2.046c-0.397,-0.169 -0.667,-0.545 -0.701,-0.974z" fill="#000000"/><path d="M271.48975,120.88522c1.332,0.56 0.133,3.183 -1.112,1.523c0.05,-0.846 0.394,-1.307 1.112,-1.523z" fill="#000000"/></g></g></g></svg>