<svg version="1.1" xmlns="http://www.w3.org/2000/svg" xmlns:xlink="http://www.w3.org/1999/xlink" width="143.44119" height="179.48489" viewBox="0,0,143.44119,179.48489"><g transform="translate(-163.14373,-67.95064)"><g data-paper-data="{&quot;isPaintingLayer&quot;:true}" fill-rule="nonzero" stroke="none" stroke-width="1" stroke-linecap="butt" stroke-linejoin="miter" stroke-miterlimit="10" stroke-dasharray="" stroke-dashoffset="0" style="mix-blend-mode: normal"><g><path d="M163.14373,192.36251c1.481,-0.803 5.044,-0.136 6.699,-0.136c2.458,0.004 4.941,0.05 7.423,0.087c1.722,0.028 14.14,0.144 20.417,-1.265c11.383,-2.554 17.334,-7.698 18.956,-7.674c2.512,0.037 -11.202,38.517 -11.202,38.517c0,0 -12.773,-0.931 -20.532,-5.317c-14.152,-7.995 -21.368,-21.885 -21.761,-24.212z" fill="#828c00"/><path d="M215.29273,152.45751c0.592,0 0.298,-2.932 0.675,-2.932c0.376,0 0.211,2.85 0.885,2.805c0.675,-0.046 0.253,-2.719 0.882,-2.719c0.629,0 0.037,5.639 0.062,7.262c0.037,2.195 -0.058,4.399 0.037,6.59c0.087,1.961 0.385,3.905 1.39,5.623c0.588,1.001 4.258,3.554 8.173,3.871c2.355,0.203 4.728,-0.04 6.993,-0.716l2.619,3.97c0,0 -5.449,1.52 -10.345,1.125c-3.413,-0.272 -7.034,-1.615 -7.804,-2.13c-2.669,-1.767 -4.204,-5.284 -4.374,-8.155c-0.161,-2.715 -0.227,-5.45 -0.302,-8.172c-0.062,-2.422 -0.604,-8.687 0,-8.856c0.604,-0.169 0.534,2.434 1.109,2.434z" fill="#828c00"/><path d="M261.99173,207.05051l8.955,-12.357c12.621,13.432 27.343,27.787 30.207,30.259c0.989,-0.688 1.34,-1.763 2.027,-2.562l0.923,0.535c-0.943,1.157 -4.477,6.483 -5.694,7.476c-1.042,-0.762 -36.418,-23.351 -36.418,-23.351z" fill="#828c00"/><path d="M212.42073,185.57051c1.353,-1.298 3.215,-2.06 4.659,-3.135c2.202,-1.647 4.8,-2.85 7.035,-4.485c0.724,-0.523 2.156,-1.73 2.156,-1.73l2.619,-3.971c0,0 1.874,-5.095 2.181,-6.772c1.241,-6.73 1.307,-26.732 1.349,-33.569l47.089,13.135l2.644,9.746c0,0 0.104,10.025 0.294,15.009c0.377,9.865 0.782,19.359 -0.716,29.163c-0.682,4.485 -1.419,8.744 -4.179,12.472c-2.897,3.909 -6.335,7.134 -11.019,8.815c-8.657,3.101 -49.2,2.117 -52.064,1.824c-2.979,-0.304 -6.099,0.19 -9.045,-0.181c-0.455,-2.195 -0.083,-4.84 -0.05,-7.072c0.133,-9.334 -0.331,-22.173 7.047,-29.249z" fill="#a0aa1e"/><path d="M282.01573,143.05451l0.129,11.735l-26.156,-11.377l26.027,-0.358" fill="#828c00"/><path d="M293.84073,150.43551c0.608,0.169 0.066,6.434 0,8.856c-0.075,2.722 -0.141,5.457 -0.302,8.172c-0.17,2.871 -1.316,5.902 -3.985,7.665c-0.778,0.515 -4.779,2.348 -8.189,2.62c-4.903,0.395 -8.412,-1.104 -9.736,-1.186l-0.327,-0.565c0.093,-1.34 0.109,-2.686 0.045,-4.028c1.059,-0.19 5.293,1.726 9.273,1.4c3.915,-0.317 7.585,-2.871 8.173,-3.871c1.009,-1.718 1.303,-3.662 1.39,-5.623c0.095,-2.191 0,-4.395 0.037,-6.59c0.025,-1.623 -0.567,-7.262 0.062,-7.262c0.629,0 0.207,2.673 0.882,2.718c0.674,0.046 0.509,-2.805 0.885,-2.805c0.377,0 0.083,2.933 0.675,2.933c0.587,0 0.509,-2.603 1.117,-2.434z" fill="#a0aa1e"/><path d="M247.79473,202.70951c0,0 -10.618,37.405 -10.618,43.735c0.571,0.099 3.562,-0.308 3.997,0.305c-0.364,1.257 -7.734,0.449 -9.228,0.206c-0.459,-1.363 -2.358,-43.117 -2.358,-43.117z" fill="#a0aa1e"/><g><path d="M269.09973,69.37751l17.628,3.666l-8.814,2.022l-8.814,-5.688" fill="#aaa082"/><path d="M281.36873,127.95751l9.434,-6.643c1.234,2.233 2.581,4.402 4.035,6.499z" fill="#aaa082"/><path d="M280.39073,83.56751c2.971,1.141 16.858,7.48 16.858,7.48l-17.292,6.834c0,0 0.29,-12.473 0.434,-14.314z" fill="#dcd2b4"/><path d="M294.97873,110.03251c-1.8,0.926 -15.182,4.967 -15.182,4.967l-0.381,-10.977c0,0 15.563,5.944 15.563,6.01z" fill="#aaa082"/><path d="M296.03473,100.81351l-15.67,4.152c0,0 -0.873,-6.079 -0.645,-8.262c2.309,0.181 16.315,4.11 16.315,4.11z" fill="#dcd2b4"/><path d="M292.76373,80.70451c-3.207,1.36 -11.056,4.008 -14.482,4.745c-0.696,-1.178 -1.155,-10.219 -2.227,-11.665c0.017,-0.049 14.562,5.652 16.709,6.92z" fill="#dcd2b4"/><path d="M279.28073,114.06851l11.909,4.692l-11.619,6.668l-0.29,-11.36" fill="#aaa082"/><path d="M244.45173,93.17751c2.582,-15.047 9.348,-22.688 9.348,-22.688c0,0 8.689,-2.331 10.738,-2.245c2.954,0.12 10.345,2.752 13.427,5.738c0.729,0.669 1.326,1.467 1.763,2.352c0.961,1.93 1.587,4.008 1.854,6.146c0.298,2.753 0.437,5.522 0.414,8.291c0,2.884 -0.509,15.01 -0.576,18.202c-0.024,1.153 -0.48,10.516 -0.55,12.897c0,0.556 -0.455,7.55 -0.455,7.55l-36.385,-1.998c0,0 -1.862,-20.937 0.422,-34.245z" fill="#000000"/><path d="M255.06873,71.65151c2.069,-0.779 3.935,-3.192 5.971,-3.122c1.141,-0.41 2.362,-0.551 3.567,-0.412c4.792,0.362 16.486,1.454 16.486,1.454c0,0 -24.84,2.924 -26.024,2.08z" fill="#faf0e6"/><path d="M247.78473,79.74951c2.206,0.428 20.669,9.651 23.396,12.567c-0.84,0.708 -23.586,5.429 -25.382,5.157c-0.976,-1.413 0.939,-14.936 1.986,-17.724z" fill="#ffffff"/><path d="M245.23173,93.51951c2.16,1.425 23.636,10.515 25.332,12.476c-2.334,1.079 -25.75,8.316 -25.75,8.316c0,0 -1.56,-22.11 0.418,-20.792z" fill="#ffffff"/><path d="M260.44973,118.08451c-0.008,0.054 -14.983,4.943 -14.983,4.943l-0.199,-10.256c0,0 13.411,4.205 15.182,5.313z" fill="#dcd2b4"/><path d="M297.22973,115.46551c1.713,3.53 3.464,8.159 4.018,12.039c-3.525,-0.201 -7.047,-0.057 -10.58,-0.251c0.658,-2.241 5.259,-9.931 6.562,-11.788z" fill="#faf0e6"/><path d="M282.96573,117.54551l9.282,10.676l-13.614,0.103l4.332,-10.779" fill="#faf0e6"/><path d="M268.00573,129.28851c-0.381,-0.639 6.207,-10.046 7.035,-11.694h0.173c1.581,2.859 4.639,9.482 5.835,12.518c-1.635,0.766 -11.317,-0.61 -13.043,-0.824z" fill="#dcd2b4"/><path d="M265.99473,118.54651c0.534,0.494 4.324,8.225 4.581,9.292c-1.511,0.194 -8.744,0.807 -8.959,0.729c-0.343,-1.87 3.679,-8.316 4.378,-10.021z" fill="#faf0e6"/><path d="M256.74973,127.52151c1.291,-2.776 3.016,-5.767 3.016,-5.767c0,0 1.655,3.114 2.959,5.767z" fill="#faf0e6"/><path d="M252.79773,128.97951c1.291,-2.772 3.021,-5.767 3.021,-5.767c0,0 1.655,3.114 2.954,5.767z" fill="#faf0e6"/><path d="M300.84873,128.19251c0,0 1.933,-8.934 2.541,-10.24c1.378,2.006 3.393,8.346 2.922,9.993c-1.109,0.21 -5.463,0.247 -5.463,0.247z" fill="#dcd2b4"/><path d="M272.89273,82.29051c-2.955,0.157 -24.443,-0.222 -24.443,-0.222l8.313,-10.957c0,0 15.36,9.89 16.13,11.179z" fill="#ffffff"/><path d="M231.86773,118.74751c0.273,-11.29 0.074,-24.569 5.412,-34.83c2.574,-4.943 5.595,-9.251 10.759,-11.792c2.646,-1.372 5.44,-2.439 8.329,-3.18c2.342,-0.54 5.893,-1.351 8.256,-0.824c-4.631,1.532 -7.78,3.987 -10.3,8.168c-2.797,4.634 -4.258,10.083 -5.454,15.31c-1.075,5.007 -1.561,10.122 -1.448,15.24c0.033,2.571 0.046,5.149 0.182,7.707c0.029,0.503 0.178,11.286 0.178,11.286c0,0 58.457,1.153 58.626,0.943c1.027,2.266 -2.689,7.773 -3.997,9.375c-2.143,2.62 -10.535,7.715 -11.801,8.164c-1.711,0.656 -3.457,1.218 -5.231,1.681c-3.264,0.753 -6.653,0.762 -9.989,1.042c-23.867,1.791 -36.177,-1.368 -42.757,-2.908c-0.372,-8.453 -0.968,-16.888 -0.765,-25.382z" fill="#a0aa1e"/><path d="M238.41173,123.24151c0.2,-0.159 0.484,-0.159 0.683,0c1.643,0.828 2.905,2.27 3.248,2.385v0.523l-4.166,2.187l-0.493,-0.453c0,0 3.443,-1.812 3.857,-2.125c-0.369,-0.313 -3.042,-2.134 -3.129,-2.517z" fill="#000000"/></g></g></g></g></svg>