<svg version="1.1" xmlns="http://www.w3.org/2000/svg" xmlns:xlink="http://www.w3.org/1999/xlink" width="148.4865" height="143.65244" viewBox="0,0,148.4865,143.65244"><g transform="translate(-163.81702,-108.17378)"><g data-paper-data="{&quot;isPaintingLayer&quot;:true}" fill-rule="nonzero" stroke="none" stroke-width="1" stroke-linecap="butt" stroke-linejoin="miter" stroke-miterlimit="10" stroke-dasharray="" stroke-dashoffset="0" style="mix-blend-mode: normal"><path d="M245.62352,234.01022c3.934,3.005 10.455,3.868 10.455,3.868c0,0 0.456,5.797 0.851,8.569c-1.204,0.644 -1.225,-3.166 -1.329,-3.884c-1.826,-0.216 -3.386,0.274 -5.287,0.199c-2.067,-0.078 -4.163,0.146 -6.189,-0.415c-3.937,-1.13 -7.363,-3.586 -9.699,-6.951c-2.424,-3.44 -3.113,-9.436 -3.046,-13.694l13.455,-1.909c-2.739,4.179 -2.988,11.35 0.789,14.217z" data-paper-data="{&quot;index&quot;:null}" fill="#a0aa1e"/><path d="M218.14552,251.52722c-1.523,0.419 -7.948,0.203 -9.45,0.299c0.033,-0.39 0.062,-0.689 0.095,-1.067c1.054,-0.095 2.146,0.253 3.287,-0.162c-0.369,-3.78 -3.619,-24.173 -7.333,-42.328l15.356,-0.116c0,0 -1.967,42.1 -1.955,43.374z" data-paper-data="{&quot;index&quot;:null}" fill="#828c00"/><path d="M290.47652,221.26222c-7.782,4.42 -20.595,5.357 -20.595,5.357c0,0 -13.754,-38.768 -11.235,-38.805c1.627,-0.025 7.595,5.158 19.013,7.731c6.296,1.42 18.752,1.303 20.478,1.274c2.491,-0.037 4.981,-0.083 7.446,-0.087c1.66,0 5.234,-0.672 6.72,0.137c-0.394,2.345 -7.633,16.338 -21.827,24.393z" data-paper-data="{&quot;index&quot;:null}" fill="#828c00"/><path d="M270.34252,226.60722c-2.955,0.373 -6.085,-0.125 -9.073,0.183c-1.253,0.128 -12.654,0.593 -22.479,0.593c-12.725,-0.004 -24.84,-0.668 -29.741,-2.432c-4.699,-1.693 -8.148,-4.942 -11.053,-8.88c-2.768,-3.756 -3.507,-8.047 -4.192,-12.566c-1.502,-9.877 -1.096,-19.442 -0.718,-29.381c0.191,-5.022 0.473,-10.097 0.295,-15.122c-0.096,-2.669 0.274,-8.171 -1.108,-12.284c-0.909,-2.693 -3.657,-4.797 -3.985,-5.079c-1.515,-1.299 -3.162,-2.108 -4.939,-2.959c-3.017,-1.436 -7.118,-5.163 -3.461,-7.885l31.431,-2.075l30.551,3.855c0.282,1.233 0.556,2.544 0.78,3.756c2.063,11.047 -0.062,22.43 1.955,33.456c0.307,1.689 2.187,6.823 2.187,6.823l-0.112,2.543l2.74,1.457c0,0 1.436,1.216 2.162,1.743c2.241,1.647 4.848,2.859 7.056,4.519c1.448,1.083 3.316,1.851 4.673,3.158c7.392,7.125 6.927,20.061 7.056,29.464c0.033,2.249 0.407,4.914 -0.025,7.113z" data-paper-data="{&quot;index&quot;:null}" fill="#a0aa1e"/><path d="M182.82652,157.08022c0.593,0 0.299,-2.954 0.676,-2.954c0.378,0 0.212,2.871 0.889,2.826c0.676,-0.046 0.253,-2.739 0.884,-2.739c0.631,0 0.037,5.681 0.062,7.316c0.037,2.212 -0.058,4.432 0.037,6.64c0.087,1.975 0.382,3.934 1.395,5.664c0.589,1.009 4.271,3.582 8.197,3.901c3.993,0.328 8.238,-1.602 9.301,-1.411c-0.064,1.353 -0.048,2.708 0.046,4.059l-0.328,0.568c-1.328,0.083 -4.848,1.594 -9.766,1.195c-3.42,-0.273 -7.434,-2.12 -8.214,-2.639c-2.677,-1.776 -3.827,-4.83 -3.997,-7.723c-0.162,-2.735 -0.228,-5.49 -0.303,-8.233c-0.066,-2.44 -0.61,-8.752 0,-8.922c0.61,-0.17 0.532,2.452 1.121,2.452z" data-paper-data="{&quot;index&quot;:null}" fill="#a0aa1e"/><path d="M227.64452,156.66522c0.594,0 0.299,-2.954 0.677,-2.954c0.378,0 0.212,2.871 0.888,2.826c0.677,-0.046 0.253,-2.739 0.884,-2.739c0.631,0 0.038,5.681 0.062,7.316c0.038,2.212 -0.058,4.432 0.038,6.64c0.087,1.975 0.382,3.934 1.394,5.664c0.59,1.009 4.271,3.582 8.197,3.901c2.363,0.204 4.743,-0.041 7.015,-0.722l2.627,4.001c0,0 -5.47,1.531 -10.376,1.132c-3.42,-0.273 -7.056,-1.626 -7.824,-2.145c-2.677,-1.78 -4.217,-5.324 -4.387,-8.217c-0.162,-2.735 -0.228,-5.49 -0.303,-8.233c-0.066,-2.44 -0.61,-8.752 0,-8.922c0.61,-0.17 0.519,2.452 1.108,2.452z" data-paper-data="{&quot;index&quot;:null}" fill="#828c00"/><g data-paper-data="{&quot;index&quot;:null}"><path d="M196.71952,129.91122c0.481,2.337 0.473,6.964 -2.577,7.594l-1.121,-0.527c-1.419,-2.124 -1.66,-4.423 -1.735,-6.901c1.835,-0.257 3.561,-0.033 5.433,-0.166z" fill="#ffffff"/><path d="M186.07552,129.03122h3.527c2.682,8.96 -5.428,9.52 -3.527,0z" fill="#ffffff"/><path d="M198.51652,127.67022h3.528c2.681,8.964 -5.429,9.52 -3.528,0z" fill="#dcd2b4"/><path d="M203.65652,127.09822h3.532c2.681,8.959 -5.429,9.519 -3.532,0z" fill="#ffffff"/><path d="M208.72952,126.23922h3.532c2.693,8.959 -5.413,9.519 -3.532,0z" fill="#ffffff"/><path d="M180.87952,128.24322h3.532c2.681,8.964 -5.429,9.52 -3.532,0z" fill="#faf0e6"/><path d="M228.04152,111.11222c4.474,1.981 8.058,5.546 10.061,10.01c1.648,3.68 2.91,7.521 3.764,11.462l-44.351,-0.552c-6.641,0.091 -13.282,0.004 -19.922,-0.137c-2.569,-0.071 -6.047,0.477 -8.38,-0.901c-2.104,-1.245 -2.669,-3.872 -2.548,-6.141c0.261,-4.86 2.776,-10.334 6.993,-12.969c2.213,-1.392 4.657,-2.376 7.218,-2.905c2.98,-0.622 20.872,-0.946 26.832,-0.747c2.657,0.087 5.317,0.029 7.969,0.158c1.054,0.054 8.832,1.091 12.364,2.722z" fill="#828c00"/><path d="M174.67452,128.49622c-0.593,1.399 -2.685,2.345 -3.585,0.664c-1.026,-1.905 0.975,-3.063 2.54,-3.063c0.537,0.703 0.896,1.527 1.045,2.399z" fill="#645a1e"/><path d="M180.66852,125.77822l1.1,0.83c0.863,1.531 -0.577,3.971 -2.37,2.797c-1.702,-1.1 -0.531,-3.656 1.27,-3.627z" fill="#645a1e"/><path d="M164.15952,122.03122c-0.294,-0.503 -0.664,-1.864 0.162,-2.046c0.366,0.229 0.573,0.642 0.539,1.072c-0.034,0.429 -0.304,0.805 -0.701,0.974z" fill="#000000"/><path d="M207.68252,122.40822c-1.245,1.66 -2.444,-0.963 -1.112,-1.523c0.718,0.216 1.062,0.677 1.112,1.523z" fill="#000000"/></g></g></g></svg>