<svg version="1.1" xmlns="http://www.w3.org/2000/svg" xmlns:xlink="http://www.w3.org/1999/xlink" width="118.53956" height="144.34493" viewBox="0,0,118.53956,144.34493"><g transform="translate(-180.73022,-107.82754)"><g data-paper-data="{&quot;isPaintingLayer&quot;:true}" fill-rule="nonzero" stroke="none" stroke-width="1" stroke-linecap="butt" stroke-linejoin="miter" stroke-miterlimit="10" stroke-dasharray="" stroke-dashoffset="0" style="mix-blend-mode: normal"><path d="M265.59978,215.68954c5.653,-0.447 20.551,7.923 20.946,8.068c0.688,5.238 -1.165,13.719 0.799,18.763c0.783,2.003 2.504,3.738 4.118,5.102c1.062,0.957 2.216,1.805 3.446,2.532c1.384,0.744 2.949,0.793 4.361,1.396c-1.281,0.909 -3.541,0.562 -5.015,0.533c-2.059,-0.045 -4.06,0.05 -6.099,-0.107c-4.2,-0.335 -9.281,-0.207 -13.098,-2.115c-3.735,-1.872 -4.941,-6.131 -5.81,-9.956c-0.556,-2.409 -4.389,-22.564 -3.648,-24.216z" data-paper-data="{&quot;index&quot;:null}" fill="#828c00"/><path d="M232.54478,250.91054c-1.511,0.405 -7.885,0.14 -9.376,0.227c0.037,-0.388 0.066,-0.686 0.103,-1.061c1.046,-0.087 2.125,0.256 3.261,-0.137c-0.337,-3.788 -3.405,-24.105 -6.958,-42.207h15.235c0,0 -2.265,41.893 -2.265,43.178z" data-paper-data="{&quot;index&quot;:null}" fill="#828c00"/><path d="M286.47078,225.82654c-2.932,0.372 -6.036,-0.124 -9.001,0.182c-2.849,0.293 -43.194,1.281 -51.808,-1.83c-4.661,-1.686 -8.083,-4.92 -10.966,-8.841c-2.746,-3.738 -3.479,-8.01 -4.158,-12.508c-1.491,-9.832 -1.087,-19.354 -0.713,-29.248c0.19,-4.999 0.47,-10.051 0.293,-15.054c-0.095,-2.656 0.271,-8.134 -1.1,-12.228c-0.902,-2.681 -3.627,-4.775 -3.953,-5.056c-1.503,-1.293 -3.137,-2.099 -4.9,-2.946c-2.993,-1.429 -7.061,-5.139 -3.434,-7.849l31.183,-2.065l30.31,3.838c0.28,1.227 0.552,2.532 0.774,3.738c2.047,10.997 -0.062,22.329 1.94,33.305c0.304,1.681 2.17,6.791 2.17,6.791l-0.112,2.533l2.718,1.45c0,0 1.425,1.21 2.145,1.735c2.224,1.64 4.81,2.846 7,4.498c1.437,1.079 3.29,1.843 4.637,3.144c7.333,7.093 6.872,19.97 7,29.331c0.033,2.239 0.403,4.891 -0.025,7.08z" data-paper-data="{&quot;index&quot;:null}" fill="#a0aa1e"/><path d="M262.40378,207.73254c0,0 -1.89,41.877 -2.347,43.244c-1.486,0.244 -8.82,1.054 -9.182,-0.206c0.432,-0.616 3.409,-0.207 3.977,-0.306c0,-6.35 -10.565,-43.864 -10.565,-43.864z" data-paper-data="{&quot;index&quot;:null}" fill="#a0aa1e"/><path d="M199.59778,156.61554c0.589,0 0.297,-2.942 0.672,-2.942c0.374,0 0.21,2.859 0.881,2.813c0.671,-0.045 0.251,-2.726 0.877,-2.726c0.626,0 0.037,5.655 0.062,7.283c0.037,2.202 -0.058,4.412 0.037,6.61c0.086,1.966 0.378,3.916 1.383,5.639c0.585,1.003 4.237,3.565 8.133,3.883c3.961,0.326 8.173,-1.595 9.227,-1.405c-0.063,1.347 -0.048,2.696 0.045,4.04l-0.325,0.566c-1.317,0.083 -4.809,1.587 -9.689,1.19c-3.393,-0.273 -7.374,-2.111 -8.148,-2.627c-2.656,-1.768 -3.797,-4.809 -3.966,-7.688c-0.16,-2.722 -0.226,-5.466 -0.3,-8.196c-0.066,-2.429 -0.606,-8.713 0,-8.882c0.605,-0.169 0.527,2.442 1.111,2.442z" data-paper-data="{&quot;index&quot;:null}" fill="#a0aa1e"/><path d="M244.07278,156.20154c0.589,0 0.296,-2.941 0.671,-2.941c0.375,0 0.21,2.859 0.881,2.813c0.672,-0.045 0.252,-2.726 0.877,-2.726c0.626,0 0.037,5.655 0.062,7.283c0.037,2.202 -0.057,4.412 0.037,6.61c0.087,1.966 0.379,3.916 1.384,5.639c0.584,1.003 4.237,3.565 8.132,3.883c2.344,0.203 4.705,-0.041 6.959,-0.719l2.606,3.982c0,0 -5.427,1.525 -10.294,1.128c-3.393,-0.273 -7,-1.619 -7.761,-2.136c-2.656,-1.772 -4.184,-5.3 -4.353,-8.179c-0.16,-2.723 -0.226,-5.466 -0.3,-8.196c-0.066,-2.429 -0.606,-8.713 0,-8.882c0.605,-0.169 0.514,2.441 1.099,2.441z" data-paper-data="{&quot;index&quot;:null}" fill="#828c00"/><g data-paper-data="{&quot;index&quot;:null}"><path d="M213.41378,129.56954c0.478,2.325 0.47,6.931 -2.557,7.559l-1.111,-0.524c-1.409,-2.115 -1.647,-4.404 -1.722,-6.87c1.82,-0.256 3.533,-0.033 5.39,-0.165z" fill="#ffffff"/><path d="M202.80678,128.69354h3.5c2.66,8.919 -5.385,9.476 -3.5,0z" fill="#ffffff"/><path d="M215.16878,127.33854h3.5c2.66,8.923 -5.386,9.476 -3.5,0z" fill="#dcd2b4"/><path d="M220.28278,126.76854h3.504c2.66,8.919 -5.386,9.476 -3.504,0z" fill="#ffffff"/><path d="M225.30978,125.91354h3.504c2.673,8.918 -5.369,9.476 -3.504,0z" fill="#ffffff"/><path d="M197.68878,127.90854h3.504c2.66,8.923 -5.386,9.476 -3.504,0z" fill="#faf0e6"/><path d="M244.46178,110.85554c4.438,1.971 7.993,5.521 9.981,9.964c1.635,3.663 2.887,7.487 3.734,11.41l-44.001,-0.549c-6.588,0.09 -13.176,0.004 -19.764,-0.137c-2.549,-0.07 -6,0.475 -8.314,-0.896c-2.088,-1.24 -2.648,-3.855 -2.528,-6.114c0.259,-4.838 2.754,-10.287 6.938,-12.91c2.195,-1.386 4.62,-2.365 7.161,-2.892c2.956,-0.619 5.974,-0.351 8.894,-0.904c5.917,0.21 11.813,-0.037 17.726,0.161c2.635,0.087 5.275,0.029 7.906,0.157c1.046,0.054 8.762,1.086 12.267,2.71z" fill="#828c00"/><path d="M191.49978,128.16054c-0.588,1.392 -2.664,2.334 -3.557,0.661c-1.017,-1.896 0.967,-3.049 2.52,-3.049c0.533,0.7 0.889,1.519 1.037,2.388z" fill="#645a1e"/><path d="M197.48278,125.45454l1.091,0.826c0.857,1.525 -0.572,3.954 -2.351,2.785c-1.688,-1.095 -0.527,-3.64 1.26,-3.611z" fill="#645a1e"/><path d="M181.06978,121.72454c-0.292,-0.5 -0.658,-1.855 0.161,-2.037c0.362,0.228 0.568,0.639 0.534,1.067c-0.033,0.428 -0.301,0.802 -0.695,0.97z" fill="#000000"/><path d="M224.25978,122.10054c-1.235,1.652 -2.425,-0.959 -1.103,-1.517c0.712,0.215 1.054,0.674 1.103,1.517z" fill="#000000"/></g></g></g></svg>