<svg version="1.1" xmlns="http://www.w3.org/2000/svg" xmlns:xlink="http://www.w3.org/1999/xlink" width="112.94053" height="65.18352" viewBox="0,0,112.94053,65.18352"><g transform="translate(-183.52974,-147.55578)"><g data-paper-data="{&quot;isPaintingLayer&quot;:true}" fill-rule="nonzero" stroke-linejoin="miter" stroke-miterlimit="10" stroke-dasharray="" stroke-dashoffset="0" style="mix-blend-mode: normal"><g stroke="#703d00" stroke-linecap="round"><path d="M236.94721,149.34506c14.181,0 24.707,3.5606 36.336,9.6833c5.526,2.9163 10.795,8.1418 13.864,15.5938c2.43,5.9589 3.743,14.6498 1.55,20.6742c-2.536,6.9668 -8.397,10.0937 -13.4,11.8584c-11.446,4.0194 -23.406,4.6185 -35.15,4.1348c-13.222,0.011 -26.656,-0.4181 -39.536,-5.5484c-4.868,-1.938 -9.207,-7.6768 -12.114,-14.0335c-1.865,-4.2441 -3.283,-11.4106 -1.55,-16.5394c2.893,-7.3506 8.09,-13.0364 13.664,-16.1399c11.563,-6.402 22.155,-9.6833 36.336,-9.6833z" data-paper-data="{&quot;origPos&quot;:null}" fill="#a85b00" stroke-width="2.61452"/><path d="M236.80851,149.45046c14.188,0 24.6504,0.6328 36.3531,5.3386c5.4439,2.1915 13.1254,7.5611 12.9243,14.1102c0.2011,6.328 -7.8717,10.0909 -12.9243,11.644c-11.9632,3.6755 -24.2445,4.5535 -36.6459,4.352c-12.4325,0.0028 -25.4135,-1.5404 -37.7143,-5.7078c-4.0974,-1.3826 -10.3375,-4.951 -9.8067,-10.2882c0.2966,-6.862 6.53,-12.1527 11.4607,-14.1102c11.7299,-4.6537 22.1651,-5.3386 36.3531,-5.3386z" data-paper-data="{&quot;origPos&quot;:null}" fill="#a85b00" stroke-width="2.4183"/><path d="M239.98054,149.74789c21.15533,-0.02633 25.91,3.92867 38.25,7.31667c5.802,1.594 12.416,5.412 14.45,10.85c2.832,7.58 2.633,20.871 -1.05,24.25c-2.611,2.401 -6.772,-11.258 -11.35,-11.85c-2.897,-0.683 -0.438,7.684 -3.6,9.3c-4.3,2.174 -12.044,-4.568 -14.45,-1.05c-2.726,3.995 5.332,10.527 3.6,15.5c-0.853,3.228 -7.367,5.247 -9.3,2.6c-3.684,-5.05 0.54,-13.195 -2.6,-18.6c-1.649,-2.845 -6.852,-2.975 -9.3,-1.05c-4.601,3.631 -4.068,11.637 -8.75,15c-2.505,1.797 -6.482,0.54 -8.8,-1.05c-5.86,-4.952 -7.327,-16.19 -14.45,-17.55c-5.374,-1.033 -8.221,12.954 -11.9,11.35c-4.157,-1.832 0.506,-15.752 -3.1,-19.1c-2.229,-2.06 -6.49,9.902 -8.75,8.25c-2.626,-2.233 -2.936,-11.016 -1.05,-16c1.968,-5.04 6.556,-9.716 11.758,-11.162c13.007,-3.611 10.872,-5.46833 40.392,-7.00467z" data-paper-data="{&quot;origPos&quot;:null}" fill="#703d00" stroke-width="1.99513"/></g><path d="M237.89721,148.56796c12.822,0.3158 25.952,1.0596 38.25,4.7835c6.37,1.934 14.289,5.8884 17.2,12.4476c3.122,7.1732 2.923,20.8244 -1.55,24.2778c-3.1,2.2817 -7.987,-11.998 -13.6,-12.8076c-3.087,-0.4753 -0.438,7.9047 -3.6,9.5671c-4.3,2.2364 -12.044,-4.6992 -14.45,-1.0802c-2.726,4.1098 5.332,10.8294 3.6,15.9452c-0.853,3.3207 -7.367,5.3977 -9.3,2.6747c-3.684,-5.1951 0.54,-13.574 -2.6,-19.1342c-1.649,-2.9267 -6.852,-3.0605 -9.3,-1.0802c-4.601,3.7353 -4.068,11.9712 -8.75,15.4308c-2.505,1.8486 -6.482,0.5555 -8.8,-1.0801c-5.86,-5.0942 -7.327,-16.655 -14.45,-18.0541c-5.374,-1.0626 -8.221,13.3261 -11.9,11.676c-4.157,-1.8846 0.506,-16.2044 -3.1,-19.6486c-2.229,-2.1191 -6.49,10.1864 -8.75,8.487c-2.626,-2.2971 -2.936,-11.3324 -1.05,-16.4595c1.968,-5.1848 6.556,-9.9951 11.758,-11.4826c13.007,-3.7147 26.872,-4.2538 40.392,-4.4626z" data-paper-data="{&quot;origPos&quot;:null}" fill="#ddc6d2" stroke="#ddc6d2" stroke-width="2.02398" stroke-linecap="round"/><path d="M239.27221,159.86456c3.276,0 6.245,0.23 8.395,0.601c2.149,0.371 3.48,0.883 3.48,1.449c0,0.566 -1.331,1.078 -3.48,1.449c-2.15,0.371 -5.119,0.601 -8.395,0.601c-3.276,0 -6.245,-0.23 -8.395,-0.601c-2.149,-0.371 -3.48,-0.883 -3.48,-1.449c0,-0.566 1.331,-1.078 3.48,-1.449c2.15,-0.371 5.119,-0.601 8.395,-0.601z" fill="#a85b00" stroke="#703d00" stroke-width="1.99513" stroke-linecap="butt"/><g data-paper-data="{&quot;origPos&quot;:null}" fill="none" stroke="#6148a4" stroke-width="1.99513" stroke-linecap="round"><path d="M218.59721,167.46118l-3.1,6.7" data-paper-data="{&quot;origPos&quot;:null}"/><path d="M236.69721,152.11456h6.2" data-paper-data="{&quot;origPos&quot;:null}"/><path d="M245.99721,178.46456l-6.2,2.05" data-paper-data="{&quot;origPos&quot;:null}"/><path d="M263.54721,172.76456l-5.7,-2.05" data-paper-data="{&quot;origPos&quot;:null}"/><path d="M207.74721,179.51456l-5.15,2.05" data-paper-data="{&quot;origPos&quot;:null}"/><path d="M189.69721,169.51118v-4.15" data-paper-data="{&quot;origPos&quot;:null}"/><path d="M219.14721,151.11456l-4.65,0.5" data-paper-data="{&quot;origPos&quot;:null}"/><path d="M292.99721,172.76456v5.7" data-paper-data="{&quot;origPos&quot;:null}"/><path d="M258.39721,162.96456h4.65" data-paper-data="{&quot;origPos&quot;:null}"/><path d="M260.44721,151.11456h-3.1z" data-paper-data="{&quot;origPos&quot;:null}"/></g><g data-paper-data="{&quot;origPos&quot;:null}" fill="none" stroke="#9b4976" stroke-width="1.99513" stroke-linecap="round"><path d="M216.54721,159.36456l-5.15,1" data-paper-data="{&quot;origPos&quot;:null}"/><path d="M234.09721,172.76456h-6.2" data-paper-data="{&quot;origPos&quot;:null}"/><path d="M268.69721,162.46456v4.65" data-paper-data="{&quot;origPos&quot;:null}"/><path d="M248.54721,153.16456l5.2,3.1" data-paper-data="{&quot;origPos&quot;:null}"/><path d="M286.79721,170.71456v5.7" data-paper-data="{&quot;origPos&quot;:null}"/><path d="M277.49721,158.81456h4.15" data-paper-data="{&quot;origPos&quot;:null}"/><path d="M196.39721,166.56456l4.65,-4.65" data-paper-data="{&quot;origPos&quot;:null}"/></g><g data-paper-data="{&quot;origPos&quot;:null}" fill="none" stroke="#ffffff" stroke-width="1.99513" stroke-linecap="round"><path d="M202.09721,172.76456l4.1,-1" data-paper-data="{&quot;origPos&quot;:null}"/><path d="M225.84721,153.16456l4.15,3.6" data-paper-data="{&quot;origPos&quot;:null}"/><path d="M228.79383,188.81456l4.1,-3.65" data-paper-data="{&quot;origPos&quot;:null}"/><path d="M250.44383,179.51456l4.15,3.1" data-paper-data="{&quot;origPos&quot;:null}"/><path d="M263.89383,180.01456l-0.5,3.1z" data-paper-data="{&quot;origPos&quot;:null}"/><path d="M269.04383,154.71456h-4.65" data-paper-data="{&quot;origPos&quot;:null}"/><path d="M277.34382,170.21456l4.1,-1.05" data-paper-data="{&quot;origPos&quot;:null}"/><path d="M190.69721,159.36456l5.7,-2.1" data-paper-data="{&quot;origPos&quot;:null}"/><path d="M206.54383,158.31456l-1.55,-3.6z" data-paper-data="{&quot;origPos&quot;:null}"/><path d="M248.89383,167.11456l0.55,2.55z" data-paper-data="{&quot;origPos&quot;:null}"/></g></g></g></svg>