<svg version="1.1" xmlns="http://www.w3.org/2000/svg" xmlns:xlink="http://www.w3.org/1999/xlink" width="238.25165" height="760.47859" viewBox="0,0,238.25165,760.47859"><defs><radialGradient cx="244.71799" cy="171.32536" r="182.66091" gradientUnits="userSpaceOnUse" id="color-1"><stop offset="0" stop-color="#ffffff"/><stop offset="1" stop-color="#ff6666"/></radialGradient></defs><g transform="translate(-125.65406,575.91757)"><g data-paper-data="{&quot;isPaintingLayer&quot;:true}" fill-rule="nonzero" stroke="none" stroke-width="0" stroke-linecap="butt" stroke-linejoin="miter" stroke-miterlimit="10" stroke-dasharray="" stroke-dashoffset="0" style="mix-blend-mode: normal"><path d="M166.6478,168.68904v-744.60661h150.53153v744.60661z" fill="url(#color-1)"/><g data-paper-data="{&quot;index&quot;:null}"><path d="M186.40805,162.99126c-8.6969,-2.05895 -18.37539,-7.98216 -23.29323,-13.76724c-2.74151,-3.2249 -33.58638,-12.34256 -32.3744,-14.78828c0.42925,-0.86618 23.29947,7.1084 31.19984,7.82337c9.17322,0.83018 8.2825,-8.7018 10.57794,-9.07704c4.76471,-0.77892 30.36261,16.06307 36.9662,15.51585c2.54622,-0.211 -5.22472,-8.09535 2.00167,-10.00664c1.74907,-0.4626 4.2159,-8.09573 9.71323,-6.86353c6.54653,1.46738 16.37414,11.9173 20.31332,12.26416c7.906,0.69617 16.62329,-3.92979 19.79588,-3.94591c14.81708,-0.07529 -14.16415,15.5685 -2.12939,14.32435c8.61158,-0.89026 15.3432,-5.23562 20.43219,-7.79714c4.32399,-2.17644 3.56068,3.2857 11.7909,1.78948c9.61626,-1.74821 28.2864,-10.24927 32.64937,-9.7503c7.05136,0.80644 -18.96555,12.86224 -14.01587,14.03406c10.42081,2.46708 49.32154,-8.11717 45.60325,-5.58372c-3.91534,2.66776 -51.16935,18.426 -68.6796,19.87704c-34.13888,2.82902 -79.15718,1.01643 -100.5513,-4.04854z" fill="#fc6060"/><path d="M205.41731,173.33118c-9.73058,-1.53867 -22.57183,-6.59764 -30.63454,-11.72562c-4.49459,-2.85862 -40.01149,-9.98841 -40.16954,-12.29204c-0.05598,-0.81585 26.95106,5.58945 35.15029,5.92252c9.5202,0.38674 3.3589,-8.35994 5.41812,-8.80036c4.27449,-0.9142 38.88897,13.54967 45.108,12.77312c2.39794,-0.29942 -9.64592,-7.24418 -3.56758,-9.30334c1.47119,-0.49839 -0.32192,-7.63379 5.7905,-6.72502c7.27897,1.08221 22.77567,10.30625 26.85851,10.46345c8.19438,0.3155 14.24099,-4.3066 17.36561,-4.45227c14.5928,-0.68032 -5.3633,14.9299 5.8338,13.28723c8.0122,-1.17544 12.25315,-5.45712 15.86016,-8.0273c3.06476,-2.18381 5.33739,2.88086 12.63717,1.16278c8.52915,-2.00744 22.25889,-10.61071 26.84456,-10.33082c7.41136,0.45236 -11.60501,12.63414 -6.06705,13.50984c11.65947,1.84365 44.21624,-9.51338 41.94754,-7.02558c-2.38896,2.61971 -40.32928,19.08884 -56.81981,21.14792c-32.15073,4.01449 -77.6188,4.20049 -101.55574,0.41544z" fill="#fca85a"/><path d="M311.10254,172.66562c-9.60279,4.55689 -23.9475,8.9569 -34.11656,10.1812c-25.01543,3.01175 -70.27924,1.95143 -101.09948,-2.36831c-15.80813,-2.21563 -48.59517,-18.09925 -50.17625,-20.5545c-1.50145,-2.33163 27.48093,8.74668 39.66562,7.27969c5.78747,-0.69679 -9.44644,-12.26853 -1.92101,-12.53946c4.65632,-0.16763 15.71381,8.01066 23.60217,10.02309c6.75134,1.72237 10.56351,-2.88959 12.95133,-0.82187c2.81034,2.43356 5.72973,6.45303 13.35693,7.69042c10.65909,1.72925 -4.46445,-13.01294 9.87328,-12.10203c3.06991,0.19503 7.68518,4.56282 15.94937,4.43302c4.11766,-0.06466 22.3814,-8.24204 29.96724,-9.09464c6.37011,-0.71596 2.40352,5.80916 3.71769,6.29616c5.4297,2.01206 -8.69624,8.16141 -6.39752,8.48361c5.96164,0.83559 44.88166,-11.78529 48.86298,-10.86117c1.91804,0.4452 -6.89483,8.36628 2.71264,8.19692c8.27432,-0.14585 37.1502,-5.50658 36.84521,-4.75759c-0.86119,2.11483 -38.44054,7.97521 -43.79364,10.51547z" data-paper-data="{&quot;index&quot;:null}" fill="#fcf288"/></g></g></g></svg>