<svg version="1.1" xmlns="http://www.w3.org/2000/svg" xmlns:xlink="http://www.w3.org/1999/xlink" width="199.2847" height="1048.26239" viewBox="0,0,199.2847,1048.26239"><defs><radialGradient cx="239.84267" cy="159.05495" r="176.47577" gradientUnits="userSpaceOnUse" id="color-1"><stop offset="0" stop-color="#ffffff"/><stop offset="1" stop-color="#ff6666"/></radialGradient></defs><g transform="translate(-146.13753,858.70136)"><g data-paper-data="{&quot;isPaintingLayer&quot;:true}" fill-rule="nonzero" stroke="none" stroke-width="0" stroke-linecap="butt" stroke-linejoin="miter" stroke-miterlimit="10" stroke-dasharray="" stroke-dashoffset="0" style="mix-blend-mode: normal"><path d="M193.1463,173.21921v-1031.92057h101.03303v1031.92057z" fill="url(#color-1)"/><g data-paper-data="{&quot;index&quot;:null}"><path d="M196.95497,169.62324c-7.27449,-1.90317 -15.37003,-7.37823 -19.48354,-12.7256c-2.29312,-2.9809 -28.0932,-11.40872 -27.07944,-13.66939c0.35906,-0.80064 19.48876,6.57057 26.09699,7.23145c7.67292,0.76737 6.92787,-8.04342 8.84788,-8.39027c3.98542,-0.71998 25.39669,14.84773 30.92024,14.34191c2.12978,-0.19503 -4.3702,-7.48285 1.67429,-9.24953c1.463,-0.4276 3.52638,-7.48321 8.1246,-6.34423c5.47582,1.35635 13.69609,11.01563 16.991,11.33625c6.61294,0.6435 13.90448,-3.63246 16.55818,-3.64736c12.39369,-0.06959 -11.84755,14.39057 -1.78112,13.24056c7.20312,-0.8229 12.83376,-4.83949 17.09042,-7.2072c3.61678,-2.01177 2.97831,3.0371 9.86245,1.65409c8.04348,-1.61594 23.66005,-9.4738 27.30945,-9.01259c5.89808,0.74542 -15.86366,11.88907 -11.72352,12.97223c8.71645,2.28042 41.25482,-7.50302 38.14466,-5.16125c-3.27497,2.46591 -42.80041,17.03188 -57.44679,18.37313c-28.55533,2.61498 -66.21072,0.93953 -84.10575,-3.74222z" fill="#fc6060"/><path d="M212.85521,179.18083c-8.13911,-1.42225 -18.88012,-6.09846 -25.62415,-10.83845c-3.75948,-2.64234 -33.46746,-9.23268 -33.59966,-11.36201c-0.04682,-0.75413 22.54311,5.16655 29.40133,5.47442c7.96313,0.35748 2.80954,-7.72742 4.53197,-8.13452c3.57538,-0.84503 32.52853,12.52449 37.73042,11.8067c2.00575,-0.27677 -8.06829,-6.69608 -2.98409,-8.59944c1.23057,-0.46068 -0.26927,-7.05622 4.84344,-6.2162c6.08847,1.00033 19.05062,9.52648 22.4657,9.67178c6.85416,0.29163 11.91182,-3.98076 14.5254,-4.11541c12.2061,-0.62885 -4.48611,13.8003 4.87966,12.28191c6.70177,-1.08651 10.2491,-5.04423 13.26617,-7.41995c2.56351,-2.01858 4.46445,2.6629 10.57031,1.0748c7.13418,-1.85555 18.61836,-9.8079 22.45403,-9.54919c6.19921,0.41813 -9.70696,11.67824 -5.07476,12.48768c9.75252,1.70416 36.9845,-8.79359 35.08686,-6.49402c-1.99824,2.4215 -33.73328,17.64457 -47.52671,19.54786c-26.89236,3.71075 -64.92394,3.88268 -84.94591,0.384z" fill="#fca85a"/><path d="M301.25521,178.56564c-8.03222,4.21212 -20.03079,8.27921 -28.53667,9.41089c-20.92407,2.78388 -58.7848,1.80378 -84.56428,-2.18912c-13.22264,-2.048 -40.64724,-16.72985 -41.96973,-18.99934c-1.25588,-2.15522 22.98633,8.0849 33.17816,6.7289c4.8409,-0.64407 -7.90144,-11.34028 -1.60682,-11.59071c3.89477,-0.15495 13.14376,7.40457 19.74194,9.26474c5.64713,1.59206 8.83581,-2.67096 10.83309,-0.75968c2.3507,2.24943 4.79261,5.96479 11.17236,7.10856c8.91576,1.59842 -3.73426,-12.02837 8.25847,-11.18638c2.56782,0.18028 6.42824,4.21759 13.34079,4.09762c3.4442,-0.05977 18.72083,-7.61844 25.06599,-8.40653c5.32825,-0.66179 2.01042,5.36963 3.10965,5.81979c4.54166,1.85983 -7.27394,7.54392 -5.35118,7.84173c4.9866,0.77237 37.5411,-10.89361 40.87126,-10.03941c1.60434,0.41151 -5.76715,7.73328 2.26898,7.57674c6.92102,-0.13481 31.07415,-5.08995 30.81903,-4.39763c-0.72034,1.95482 -32.15344,7.3718 -36.63103,9.71986z" data-paper-data="{&quot;index&quot;:null}" fill="#fcf288"/></g></g></g></svg>