<svg version="1.1" xmlns="http://www.w3.org/2000/svg" xmlns:xlink="http://www.w3.org/1999/xlink" width="191.70512" height="1005.18128" viewBox="0,0,191.70512,1005.18128"><defs><radialGradient cx="237.92792" cy="165.3172" r="168.68655" gradientUnits="userSpaceOnUse" id="color-1"><stop offset="0" stop-color="#ffffff"/><stop offset="1" stop-color="#ff6666"/></radialGradient></defs><g transform="translate(-143.17958,816.11577)"><g data-paper-data="{&quot;isPaintingLayer&quot;:true}" fill-rule="nonzero" stroke="none" stroke-width="0" stroke-linecap="butt" stroke-linejoin="miter" stroke-miterlimit="10" stroke-dasharray="" stroke-dashoffset="0" style="mix-blend-mode: normal"><path d="M174.15231,166.68604v-982.80181h131.52553v982.80181z" fill="url(#color-1)"/><g><path d="M286.00005,163.0078c-17.21441,6.11882 -53.43761,8.30855 -80.90687,4.8909c-14.08933,-1.75296 -52.11146,-20.78996 -55.26187,-24.01279c-2.99186,-3.06058 28.30895,9.72589 36.69387,6.7455c3.98267,-1.41564 -16.95138,-15.97985 -11.27763,-16.95407c3.51059,-0.60278 18.53321,9.66706 26.27076,11.77902c6.62231,1.80754 6.00812,-4.7911 9.48734,-2.16182c4.09477,3.09448 9.51125,8.34397 16.44041,9.41946c9.68356,1.50301 -13.63569,-17.39573 -1.71337,-17.30477c2.55277,0.01946 9.56699,5.60793 15.92841,4.76692c3.16959,-0.41903 11.07722,-13.04324 16.34477,-14.81593c4.42333,-1.48859 6.40823,7.73275 7.81559,8.2916c5.81459,2.30896 -0.43817,11.83379 1.6106,12.08869c5.31347,0.66108 25.91038,-19.68516 29.74422,-18.74418c1.84699,0.45332 1.13028,11.96858 8.51136,10.96568c6.35689,-0.86374 24.75902,-10.49755 25.10442,-9.45115c0.9752,2.95459 -23.8436,13.96934 -26.04951,17.86523c-3.95706,6.98875 -11.74468,14.14439 -18.7425,16.63174z" fill="#fc6060"/><path d="M270.70455,175.49906c-19.26045,4.57259 -55.84554,4.3479 -81.71508,-0.50187c-13.26882,-2.48751 -43.79684,-22.38332 -45.71908,-25.5481c-1.82547,-3.00543 24.37078,10.71462 33.75237,8.48737c4.45603,-1.0579 -10.84517,-15.7743 -4.88175,-16.32079c3.68979,-0.33812 14.73718,10.05521 21.60002,12.48033c5.87364,2.07556 7.70228,-4.04291 10.16829,-1.40471c2.90232,3.10495 6.31473,8.2775 12.7616,9.69751c9.00955,1.98446 -7.04778,-16.87374 4.69407,-16.05186c2.51417,0.17598 7.37947,5.75979 13.97294,5.37864c3.28519,-0.1899 15.75435,-11.33316 21.61125,-12.64055c4.91825,-1.09785 3.47546,7.52219 4.65922,8.12427c4.89082,2.4876 -4.80006,10.87734 -2.87059,11.23905c5.00403,0.93812 32.85598,-16.5352 36.29538,-15.43078c1.65692,0.53206 -3.30067,11.09863 4.3596,10.63142c6.59737,-0.40237 28.32812,-8.14041 28.28308,-7.1548c-0.12717,2.78294 -28.70525,11.3962 -32.32173,14.8496c-6.48752,6.19494 -16.82002,12.30652 -24.64957,14.16533z" fill="#fca85a"/><path d="M185.66675,174.69511c-4.30728,-3.0688 -34.54486,-10.14853 -35.23781,-12.70338c-0.24541,-0.90484 22.98908,5.57129 29.64687,5.74749c7.73048,0.20459 0.63936,-9.36461 2.18268,-9.90243c3.2035,-1.1164 34.51983,14.13047 39.31676,13.12102c1.84963,-0.38924 -9.51657,-7.81805 -5.14765,-10.24876c1.05743,-0.58832 -2.13422,-8.47111 2.99138,-7.60618c6.10382,1.03 20.79942,10.90881 24.11263,10.98693c6.64964,0.15681 10.36323,-5.11977 12.83339,-5.35539c11.53661,-1.10044 -0.63228,16.70911 7.94437,14.62006c6.1371,-1.49485 8.48613,-6.35065 10.74743,-9.29054c1.92131,-2.49795 4.98872,3.07361 10.42106,0.99286c6.34723,-2.43115 15.24444,-12.31108 18.99108,-12.10857c6.05522,0.3273 -6.20249,14.30674 -1.54571,15.14849c9.80419,1.77223 33.12437,-11.61111 31.91626,-8.79435c-1.27219,2.96611 -27.65372,22.15458 -40.37345,24.83121c-24.79899,5.21853 -61.21973,6.49947 -81.34797,2.86107c-8.18236,-1.47904 -19.72458,-6.79454 -27.4513,-12.29958z" data-paper-data="{&quot;index&quot;:null}" fill="#fcf288"/></g></g></g></svg>