<svg version="1.1" xmlns="http://www.w3.org/2000/svg" xmlns:xlink="http://www.w3.org/1999/xlink" width="101.28471" height="750.95607" viewBox="0,0,101.28471,750.95607"><defs><radialGradient cx="237.77044" cy="164.20487" r="202.70271" gradientUnits="userSpaceOnUse" id="color-1"><stop offset="0" stop-color="#ffffff"/><stop offset="1" stop-color="#ff6666"/></radialGradient></defs><g transform="translate(-188.13752,564.39505)"><g data-paper-data="{&quot;isPaintingLayer&quot;:true}" fill-rule="nonzero" stroke="none" stroke-width="0" stroke-linecap="butt" stroke-linejoin="miter" stroke-miterlimit="10" stroke-dasharray="" stroke-dashoffset="0" style="mix-blend-mode: normal"><path d="M214.13429,178.05863v-742.45368h48.04805v742.45368z" fill="url(#color-1)"/><g><path d="M263.59471,171.92717c-9.09499,3.43629 -28.23301,4.66603 -42.74601,2.7467c-7.4439,-0.98445 -27.53235,-11.67551 -29.19683,-13.48543c-1.58071,-1.7188 14.95663,5.462 19.38669,3.78823c2.10419,-0.79501 -8.95602,-8.97418 -5.95838,-9.5213c1.85477,-0.33852 9.79176,5.42896 13.87979,6.61502c3.4988,1.0151 3.17431,-2.69065 5.0125,-1.21406c2.16341,1.73784 5.02514,4.68592 8.68606,5.28991c5.11617,0.84408 -7.20422,-9.76933 -0.90524,-9.71825c1.34872,0.01093 5.05458,3.14938 8.41555,2.67707c1.67461,-0.23533 5.85249,-7.325 8.63553,-8.32053c2.337,-0.83598 3.3857,4.34266 4.12925,4.65651c3.07206,1.2967 -0.2315,6.64578 0.85094,6.78893c2.8073,0.37126 13.68939,-11.05506 15.71494,-10.52661c0.97583,0.25458 0.59717,6.72148 4.49686,6.15825c3.35857,-0.48507 13.08108,-5.89536 13.26356,-5.30771c0.51523,1.65928 -12.59743,7.84509 -13.76289,10.033c-2.09066,3.92484 -6.20514,7.9434 -9.90234,9.34028z" fill="#fc6060"/><path d="M255.51355,178.94219c-10.17599,2.56794 -29.50521,2.44175 -43.17301,-0.28185c-7.01039,-1.39697 -23.13945,-12.57033 -24.15504,-14.34765c-0.96446,-1.68783 12.87595,6.01726 17.83259,4.76645c2.35428,-0.59411 -5.72989,-8.85875 -2.5792,-9.16565c1.94945,-0.18989 7.78618,5.64694 11.41207,7.00887c3.10325,1.16562 4.06939,-2.27047 5.37227,-0.78888c1.5334,1.74372 3.3363,4.64859 6.74241,5.44606c4.76007,1.11446 -3.7236,-9.47618 2.48005,-9.01462c1.32833,0.09883 3.89884,3.23466 7.38241,3.02061c1.73569,-0.10665 8.32359,-6.36463 11.418,-7.09885c2.59849,-0.61655 1.83621,4.22441 2.46164,4.56254c2.584,1.39702 -2.53604,6.10864 -1.51664,6.31178c2.64381,0.52684 17.359,-9.28606 19.17615,-8.66583c0.87541,0.2988 -1.74386,6.23292 2.30333,5.97054c3.48563,-0.22597 14.96676,-4.5716 14.94297,-4.01809c-0.06719,1.56288 -15.16601,6.40003 -17.07673,8.33944c-3.42759,3.47904 -8.88662,6.91126 -13.02325,7.95516z" fill="#fca85a"/><path d="M210.58503,178.49069c-2.27569,-1.72342 -18.25129,-5.69935 -18.6174,-7.13414c-0.12966,-0.50815 12.14596,3.1288 15.6635,3.22775c4.08429,0.1149 0.3378,-5.2591 1.15319,-5.56114c1.69253,-0.62696 18.23806,7.93558 20.77246,7.36868c0.97722,-0.21859 -5.02795,-4.39057 -2.71969,-5.75564c0.55867,-0.3304 -1.12758,-4.75732 1.58045,-4.27158c3.22487,0.57844 10.98908,6.12632 12.73957,6.17019c3.51324,0.08806 5.47527,-2.87523 6.78034,-3.00755c6.0952,-0.618 -0.33406,9.38373 4.1973,8.21053c3.24245,-0.8395 4.48353,-3.56648 5.67825,-5.21751c1.0151,-1.40283 2.63572,1.72612 5.50582,0.55759c3.35347,-1.36532 8.05419,-6.91382 10.03367,-6.80009c3.19919,0.18381 -3.277,8.03457 -0.81665,8.5073c5.17991,0.99527 17.5008,-6.52073 16.86251,-4.93885c-0.67214,1.66575 -14.61045,12.44187 -21.33075,13.94505c-13.10219,2.93069 -32.34458,3.65006 -42.97905,1.60676c-4.32304,-0.83062 -10.4212,-3.81577 -14.50351,-6.90736z" data-paper-data="{&quot;index&quot;:null}" fill="#fcf288"/></g></g></g></svg>