<svg version="1.1" xmlns="http://www.w3.org/2000/svg" xmlns:xlink="http://www.w3.org/1999/xlink" width="186.69783" height="145.20942" viewBox="0,0,186.69783,145.20942"><g transform="translate(-146.71387,-106.15558)"><g data-paper-data="{&quot;isPaintingLayer&quot;:true}" fill-rule="nonzero" stroke-linecap="butt" stroke-linejoin="miter" stroke-miterlimit="10" stroke-dasharray="" stroke-dashoffset="0" style="mix-blend-mode: normal"><path d="M152.16216,248.31832l85.58559,-136.63664l90.09009,135.13514z" fill="#ffd566" stroke="#ffffff" stroke-width="6"/><path d="M164.97168,241.7998l72.94212,-116.45145l76.78118,115.17176z" fill="#ffd566" stroke="#ffffff" stroke-width="2"/><path d="M228.59115,225.38982c0,-8.61489 2.55177,-10.16667 10.16667,-10.16667c7.28156,0 10.5,2.88511 10.16667,10.16667c-0.36347,7.93991 -2.88511,10.16667 -10.16667,10.16667c-7.61489,0 -10.16667,-1.55177 -10.16667,-10.16667z" fill="#ff0000" stroke="#3d440a" stroke-width="0"/><path d="M226.59115,175.34991c0,-29.48872 5.52182,-32.87324 12.33333,-32.87324c6.81151,0 12.59743,2.37837 12.33333,32.87324c-0.26978,31.15105 -5.52182,32.87324 -12.33333,32.87324c-6.81151,0 -12.33333,-3.38452 -12.33333,-32.87324z" fill="#ff2626" stroke="#3d440a" stroke-width="0"/></g></g></svg>