<svg version="1.1" xmlns="http://www.w3.org/2000/svg" xmlns:xlink="http://www.w3.org/1999/xlink" width="179.01004" height="50.16067" viewBox="0,0,179.01004,50.16067"><g transform="translate(-149.58193,-154.66966)"><g data-paper-data="{&quot;isPaintingLayer&quot;:true}" fill-rule="nonzero" stroke-linecap="butt" stroke-miterlimit="10" stroke-dasharray="" stroke-dashoffset="0" style="mix-blend-mode: normal"><path d="M173.50718,163.92329c1.8171,-4.13185 5.73883,-7.00363 10.29535,-7.00363c6.28175,0 11.37997,5.44193 11.37997,12.14716c0,13.20547 -13.37032,17.30027 -21.67532,30.70297c-8.78431,-13.48568 -21.67525,-17.06213 -21.67525,-30.70297c0,-6.70523 5.09822,-12.14716 11.37997,-12.14716c4.55655,0 8.47828,2.87178 10.29528,7.00363z" fill="#e26161" stroke="#b04c4c" stroke-width="4.5" stroke-linejoin="round"/><path d="M248.97279,200.18701c-3.17226,2.31215 -13.91441,-7.28465 -13.91441,-7.28465c0,0 -10.71081,9.64055 -13.89205,7.33719c-3.18379,-2.30303 2.62706,-15.48918 2.62706,-15.48918c0,0 -12.47669,-7.20829 -11.26923,-10.94511c1.20722,-3.73957 15.54165,-2.28741 15.54165,-2.28741c0,0 2.99686,-14.09274 6.92436,-14.10274c3.93302,-0.00792 6.9828,14.07614 6.9828,14.07614c0,0 14.3292,-1.505 15.54741,2.2304c1.22583,3.73216 -11.22628,10.98675 -11.22628,10.98675c0,0 5.85891,13.16579 2.6787,15.47863z" fill="#efce50" stroke="#c4aa41" stroke-width="3.5" stroke-linejoin="miter"/><g stroke-linejoin="miter"><path d="M288.94197,195.3823c-2.26848,1.66635 -17.65101,1.75483 -19.93823,0.11169c-2.28904,-1.64289 0.07746,-6.90156 1.84247,-11.11336c1.76502,-4.21181 4.45366,-3.50023 5.0007,-5.2163c0.36156,-1.13421 -2.80716,-1.38712 -3.54829,-7.86349c-0.59399,-5.19058 3.72402,-6.5331 6.50336,-6.5505c2.82011,-0.01615 6.00682,2.08216 6.04828,6.05911c0.06772,6.49552 -3.75013,6.6931 -3.27698,8.12237c0.55749,1.68401 4.18294,2.62672 5.40673,5.35881c1.22379,2.73209 4.23612,9.42481 1.96195,11.09168z" fill="#4f87f0" stroke="#4155c4" stroke-width="2.5"/><path d="M327.34196,195.3823c-2.26848,1.66635 -17.65101,1.75483 -19.93822,0.1117c-2.28904,-1.64289 0.07746,-6.90155 1.84247,-11.11336c1.76502,-4.21181 4.45365,-3.50023 5.0007,-5.2163c0.36156,-1.13421 -2.80715,-1.38712 -3.54829,-7.86349c-0.594,-5.19059 3.72401,-6.53311 6.50336,-6.55051c2.82011,-0.01615 6.00682,2.08216 6.04829,6.05912c0.06772,6.49552 -3.75014,6.69309 -3.27698,8.12236c0.55749,1.68401 4.18294,2.62672 5.40673,5.35881c1.22379,2.73209 4.23612,9.42481 1.96194,11.09168z" fill="#4f87f0" stroke="#4155c4" stroke-width="2.5"/><path d="M311.78286,201.27008c-3.16365,2.32392 -24.6163,2.44731 -27.80608,0.15577c-3.19232,-2.29119 0.10802,-9.62499 2.56954,-15.49883c2.46151,-5.87384 6.21112,-4.88146 6.97404,-7.27471c0.50424,-1.58179 -3.91489,-1.9345 -4.94849,-10.96652c-0.82839,-7.23886 5.19355,-9.11115 9.06966,-9.13541c3.93297,-0.02253 8.37719,2.9038 8.43502,8.45012c0.09445,9.05873 -5.22999,9.33427 -4.57011,11.32755c0.77748,2.34853 5.83358,3.66325 7.54029,7.47346c1.70671,3.81021 5.90775,13.14395 2.73615,15.46858z" fill="#4f87f0" stroke="#4155c4" stroke-width="3.5"/></g></g></g></svg>