<svg version="1.1" xmlns="http://www.w3.org/2000/svg" xmlns:xlink="http://www.w3.org/1999/xlink" width="713.77344" height="547" viewBox="0,0,713.77344,547"><defs><radialGradient cx="240.27344" cy="179.62891" r="239.5" gradientUnits="userSpaceOnUse" id="color-1"><stop offset="0" stop-color="#73006f"/><stop offset="1" stop-color="#73006f" stop-opacity="0"/></radialGradient></defs><g transform="translate(116.88672,93.5)"><g data-paper-data="{&quot;isPaintingLayer&quot;:true}" fill-rule="nonzero" stroke-linecap="butt" stroke-miterlimit="10" stroke-dasharray="" stroke-dashoffset="0" style="mix-blend-mode: normal"><path d="M-115.88672,452.5v-545h711.77344v545z" fill="#2d2d2d" stroke="#000000" stroke-width="2" stroke-linejoin="miter"/><path d="M0.77344,179.62891c0,-99.13511 107.2278,-179.5 239.5,-179.5c132.2722,0 239.5,80.36489 239.5,179.5c0,99.13511 -107.2278,179.5 -239.5,179.5c-132.2722,0 -239.5,-80.36489 -239.5,-179.5z" fill="url(#color-1)" stroke="#000000" stroke-width="0" stroke-linejoin="miter"/><g><path d="M111.56719,202.94738c3.50978,-7.98079 11.08471,-13.52771 19.88577,-13.52771c12.13338,0 21.98074,10.51124 21.98074,23.46259c0,25.50674 -25.82516,33.41598 -41.86651,59.30368c-16.96715,-26.04798 -41.86637,-32.956 -41.86637,-59.30368c0,-12.95135 9.84736,-23.46259 21.98074,-23.46259c8.80111,0 16.37604,5.54692 19.88563,13.52772z" fill="#e26161" stroke="#b04c4c" stroke-width="4.5" stroke-linejoin="round"/><path d="M257.3312,272.99178c-6.1273,4.46599 -26.87608,-14.07052 -26.87608,-14.07052c0,0 -20.68823,18.621 -26.8329,14.17199c-6.14958,-4.44837 5.07424,-29.9178 5.07424,-29.9178c0,0 -24.09908,-13.92302 -21.76684,-21.14079c2.33179,-7.22308 30.01914,-4.41821 30.01914,-4.41821c0,0 5.78852,-27.22051 13.3746,-27.23984c7.59674,-0.01531 13.48749,27.18848 13.48749,27.18848c0,0 27.67727,-2.90695 30.03026,4.30807c2.36773,7.20878 -21.68388,21.22122 -21.68388,21.22122c0,0 11.31665,25.43011 5.17399,29.89743z" fill="#efce50" stroke="#c4aa41" stroke-width="3.5" stroke-linejoin="miter"/><g fill="#4f87f0" stroke="#4155c4" stroke-linejoin="miter"><path d="M334.53282,263.71135c-4.38163,3.21861 -34.09344,3.3895 -38.51126,0.21574c-4.42134,-3.17329 0.14961,-13.33055 3.5588,-21.46578c3.40918,-8.13523 8.60236,-6.76078 9.659,-10.07542c0.69838,-2.19076 -5.4221,-2.67926 -6.85362,-15.18856c-1.14732,-10.02577 7.19304,-12.61888 12.56143,-12.65249c5.44714,-0.03119 11.60235,4.02174 11.68243,11.70336c0.13081,12.54629 -7.24349,12.92791 -6.32958,15.68858c1.07681,3.2527 8.07947,5.07358 10.44326,10.3507c2.36379,5.27712 8.18219,18.20428 3.78955,21.42389z" stroke-width="2.5"/><path d="M408.70353,263.71135c-4.38164,3.21861 -34.09343,3.3895 -38.51125,0.21574c-4.42134,-3.17329 0.1496,-13.33054 3.55878,-21.46577c3.40918,-8.13523 8.60236,-6.7608 9.659,-10.07543c0.69838,-2.19076 -5.4221,-2.67926 -6.85362,-15.18856c-1.14732,-10.02577 7.19304,-12.61888 12.56143,-12.65249c5.44714,-0.03119 11.60235,4.02175 11.68244,11.70337c0.13081,12.54629 -7.2435,12.9279 -6.32958,15.68857c1.07681,3.2527 8.07947,5.07358 10.44326,10.3507c2.36379,5.27712 8.18219,18.20428 3.78956,21.42389z" stroke-width="2.5"/><path d="M378.65067,275.08376c-6.11068,4.48871 -47.54711,4.72705 -53.70826,0.30088c-6.16606,-4.42551 0.20864,-18.59094 4.96313,-29.93644c4.75448,-11.34549 11.99697,-9.42869 13.47056,-14.05131c0.97396,-3.05526 -7.56173,-3.73654 -9.55815,-21.18215c-1.60007,-13.98206 10.0315,-17.59844 17.51831,-17.64531c7.59663,-0.04351 16.18079,5.60878 16.29248,16.32165c0.18242,17.4972 -10.10187,18.02941 -8.82731,21.87948c1.50172,4.53627 11.26773,7.07568 14.56429,14.43522c3.29656,7.35953 11.41098,25.3879 5.28495,29.87801z" stroke-width="3.5"/></g></g><text transform="translate(85.45169,87.12891) scale(0.8178,0.8178)" font-size="40" xml:space="preserve" fill="#d4beff" fill-rule="nonzero" stroke="#d4beff" stroke-width="2" stroke-linecap="butt" stroke-linejoin="miter" stroke-miterlimit="10" stroke-dasharray="" stroke-dashoffset="0" font-family="&quot;ヒラギノ角ゴ Pro W3&quot;, &quot;Hiragino Kaku Gothic Pro&quot;, Osaka, &quot;メイリオ&quot;, Meiryo, &quot;ＭＳ Ｐゴシック&quot;, &quot;MS PGothic&quot;" font-weight="normal" text-anchor="start" style="mix-blend-mode: normal"><tspan x="0" dy="0">Don't forget to Like, </tspan><tspan x="0" dy="46.150000000000006px">Favorit and Follow my </tspan><tspan x="0" dy="46.150000000000006px">Main Account Blas14! &lt;3</tspan></text></g></g></svg>