<svg version="1.1" xmlns="http://www.w3.org/2000/svg" xmlns:xlink="http://www.w3.org/1999/xlink" width="713.77344" height="547" viewBox="0,0,713.77344,547"><g transform="translate(117,41.87108)"><g data-paper-data="{&quot;isPaintingLayer&quot;:true}" fill-rule="nonzero" stroke-linecap="butt" stroke-linejoin="miter" stroke-miterlimit="10" stroke-dasharray="" stroke-dashoffset="0" style="mix-blend-mode: normal"><path d="M-116,504.12892v-545h711.77344v545z" fill="#2d2d2d" stroke="#000000" stroke-width="2"/><text transform="translate(102.56703,269.81447) scale(1.17172,1.17172)" font-size="40" xml:space="preserve" fill="#ff4848" fill-rule="nonzero" stroke="none" stroke-width="1" stroke-linecap="butt" stroke-linejoin="miter" stroke-miterlimit="10" stroke-dasharray="" stroke-dashoffset="0" font-family="Handwriting" font-weight="normal" text-anchor="start" style="mix-blend-mode: normal"><tspan x="0" dy="0">Thank You</tspan><tspan x="0" dy="46.150000000000006px"> For Playing! :)</tspan></text><text transform="translate(72.77344,96.56447) scale(1.54009,1.54009)" font-size="40" xml:space="preserve" fill="#ff4848" fill-rule="nonzero" stroke="none" stroke-width="1" stroke-linecap="butt" stroke-linejoin="miter" stroke-miterlimit="10" stroke-dasharray="" stroke-dashoffset="0" font-family="Marker" font-weight="normal" text-anchor="start" style="mix-blend-mode: normal"><tspan x="0" dy="0">GAME OVER </tspan></text><text transform="translate(77.77344,101.56448) scale(1.54009,1.54009)" font-size="40" xml:space="preserve" fill="#ffffff" fill-rule="nonzero" stroke="#000000" stroke-width="1" stroke-linecap="butt" stroke-linejoin="miter" stroke-miterlimit="10" stroke-dasharray="" stroke-dashoffset="0" font-family="Marker" font-weight="normal" text-anchor="start" style="mix-blend-mode: normal"><tspan x="0" dy="0">GAME OVER </tspan></text><text transform="translate(105.56703,266.81448) scale(1.17172,1.17172)" font-size="40" xml:space="preserve" fill="#ffffff" fill-rule="nonzero" stroke="#000000" stroke-width="0" stroke-linecap="butt" stroke-linejoin="miter" stroke-miterlimit="10" stroke-dasharray="" stroke-dashoffset="0" font-family="Handwriting" font-weight="normal" text-anchor="start" style="mix-blend-mode: normal"><tspan x="0" dy="0">Thank You</tspan><tspan x="0" dy="46.15px"> For Playing! :)</tspan></text><g><path d="M197.5,159.35837c0,-22.03889 19.92333,-39.90494 44.5,-39.90494c24.57667,0 44.5,17.86606 44.5,39.90494c0,14.75057 -3.56045,28.72516 -16.8319,35.63175c-6.55748,3.41258 1.06582,22.99511 -28.88728,23.95234c-31.71197,1.01344 -22.15514,-19.93051 -29.19408,-24.11615c-12.01615,-7.14527 -14.08674,-21.57021 -14.08674,-35.46794z" fill="#ff4848" stroke="#000000" stroke-width="0.5"/><path d="M222.38267,223.81507v-29.26027h4.87671v29.26027z" fill="#2d2d2d" stroke="none" stroke-width="0"/><path d="M237.98815,224.54658v-29.26027h4.87671v29.26027z" fill="#2d2d2d" stroke="none" stroke-width="0"/><path d="M253.10596,223.81507v-29.26027h4.87671v29.26027z" fill="#2d2d2d" stroke="none" stroke-width="0"/><path d="M207.99637,168.95205c0,-7.40667 6.00429,-13.41096 13.41096,-13.41096c7.40667,0 13.41096,6.00429 13.41096,13.41096c0,7.40667 -6.00429,13.41096 -13.41096,13.41096c-7.40667,0 -13.41096,-6.00429 -13.41096,-13.41096z" fill="#2d2d2d" stroke="#ff0000" stroke-width="2"/><path d="M246.03472,169.9274c0,-7.40667 6.00429,-13.41096 13.41096,-13.41096c7.40667,0 13.41096,6.00429 13.41096,13.41096c0,7.40667 -6.00429,13.41096 -13.41096,13.41096c-7.40667,0 -13.41096,-6.00429 -13.41096,-13.41096z" fill="#2d2d2d" stroke="#ff0000" stroke-width="2"/></g></g></g></svg>